#N canvas 79 54 1201 696 10;
#X obj 48 18 inlet;
#X obj 48 232 max 0;
#X obj 413 75 \$1;
#X obj 413 98 t b f;
#X obj 861 326 list store obj_\$0;
#X obj 413 13 loadbang;
#X text 448 307 send msg to LP_GUI only once \; when LP_GUI asks for
\;;
#X msg 413 126 1;
#X text 217 533 MSG TO LP_GUI \; \; list where first element is the
object name \; followed by a list of pairs of integers \; where 1st
is "elem_id" (pad/button) and \; 2nd is the color \;;
#X obj 48 537 list prepend obj_\$0;
#X obj 694 601 outlet;
#X obj 753 601 outlet;
#X floatatom 457 94 5 0 0 0 - - -;
#X obj 457 73 \$2;
#X text 847 370 send 'obj_unique_id' to LP_GUI \;;
#X obj 818 181 print -n;
#N canvas 371 181 633 558 PROCESSING 0;
#X obj 53 93 r to_obj_\$0;
#X obj 53 164 unpack 0 0 0;
#X text 144 165 elem_id \, color \, status \;;
#X obj 162 313 sel 0;
#X obj 53 406 pack;
#X text 93 405 elem_id \, color \;;
#X obj 133 313 f;
#X obj 127 284 swap;
#X text 220 345 on_color \;;
#X msg 189 348 120;
#X obj 175 284 s \$0_status;
#X text 38 12 when live interaction happens (press pad/button on actual
HW) \, LP_GUI send 'elem_id' \, 'color' and 'status' to the right object
\, that then can reply ('elem_id' and 'color') to trigger visual feedback
on the device (ie light up a pad) \;;
#X text 52 472 to LP hardware \;;
#X obj 53 128 route list;
#X obj 53 445 s \$4_MIDI_to_LP_GUI;
#X obj 400 67 r \$0_color_fg;
#X obj 400 88 max 0;
#X obj 400 109 min 127;
#X msg 400 130 set \$1;
#X obj 486 103 loadbang;
#X msg 486 124 120;
#X obj 148 196 t f f;
#X obj 148 227 spigot 1;
#X obj 275 197 spigot;
#X obj 275 218 moses 1;
#X obj 314 260 f 0;
#X obj 314 281 + 1;
#X obj 314 302 % 2;
#X obj 314 323 t f f;
#X obj 217 79 r \$0_toggle_mode;
#X msg 217 121 1 \$1;
#X obj 217 142 -;
#X obj 417 302 t b b;
#X obj 53 370 f;
#X obj 417 281 t b a;
#X obj 417 323 spigot;
#X obj 217 100 t f f f;
#X text 203 298 to object \; outlet \;;
#X text 469 277 when in toggle mode \; refresh color_fg \; immediately
\;;
#X obj 53 267 spigot 1;
#X obj 314 239 t b b;
#X msg 351 260 1;
#X msg 275 239 0;
#X obj 148 259 t f f b;
#X msg 205 259 1;
#X obj 321 392 r \$0_off_on;
#X obj 321 434 \$1;
#X obj 367 477 f;
#X obj 415 373 loadbang;
#X obj 415 394 \$2;
#X obj 397 477 f 120;
#X obj 544 362 r \$0_color_fg;
#X obj 544 383 max 0;
#X obj 544 404 min 127;
#X obj 474 383 max 0;
#X obj 474 404 min 127;
#X obj 474 342 r \$0_color_bg;
#X obj 348 435 sel 0 1;
#X obj 321 413 t b f f;
#X obj 321 505 pack 0 0 0;
#X connect 0 0 13 0;
#X connect 1 0 39 0;
#X connect 1 1 7 0;
#X connect 1 2 21 0;
#X connect 3 0 6 0;
#X connect 3 1 9 0;
#X connect 4 0 14 0;
#X connect 6 0 4 1;
#X connect 7 0 3 0;
#X connect 7 1 6 1;
#X connect 9 0 4 1;
#X connect 13 0 1 0;
#X connect 15 0 16 0;
#X connect 16 0 17 0;
#X connect 17 0 18 0;
#X connect 18 0 34 0;
#X connect 19 0 20 0;
#X connect 20 0 18 0;
#X connect 21 0 22 0;
#X connect 21 1 23 0;
#X connect 22 0 43 0;
#X connect 23 0 24 0;
#X connect 24 0 42 0;
#X connect 24 1 40 0;
#X connect 25 0 26 0;
#X connect 26 0 27 0;
#X connect 27 0 28 0;
#X connect 28 0 43 0;
#X connect 28 1 25 1;
#X connect 29 0 36 0;
#X connect 30 0 31 0;
#X connect 31 0 22 1;
#X connect 32 0 35 0;
#X connect 32 1 9 0;
#X connect 33 0 4 0;
#X connect 34 0 32 0;
#X connect 34 1 9 0;
#X connect 35 0 33 0;
#X connect 36 0 30 0;
#X connect 36 1 23 1;
#X connect 36 2 35 1;
#X connect 39 0 33 0;
#X connect 40 0 25 0;
#X connect 40 1 41 0;
#X connect 41 0 39 1;
#X connect 42 0 39 1;
#X connect 43 0 7 1;
#X connect 43 1 10 0;
#X connect 43 2 44 0;
#X connect 44 0 39 1;
#X connect 45 0 58 0;
#X connect 46 0 59 0;
#X connect 47 0 59 1;
#X connect 48 0 49 0;
#X connect 49 0 47 1;
#X connect 50 0 59 1;
#X connect 51 0 52 0;
#X connect 52 0 53 0;
#X connect 53 0 50 1;
#X connect 54 0 55 0;
#X connect 55 0 47 1;
#X connect 56 0 54 0;
#X connect 57 0 47 0;
#X connect 57 1 50 0;
#X connect 58 0 46 0;
#X connect 58 1 57 0;
#X connect 58 2 59 2;
#X connect 59 0 1 0;
#X restore 203 393 pd PROCESSING;
#X obj 108 232 max 0;
#X obj 457 114 s \$0_color;
#X obj 108 181 r \$0_color;
#X obj 108 211 min 127;
#X obj 48 253 pack;
#X obj 48 344 list store;
#X text 752 622 status;
#X text 692 622 symbol;
#X obj 694 565 symbol;
#X obj 577 73 \$0;
#X floatatom 577 94 5 0 0 0 - - -;
#X obj 537 127 symbol \$3;
#X symbolatom 537 148 10 0 0 0 - - -;
#X obj 537 168 s \$0_obj_symbol;
#X obj 727 534 r \$0_obj_symbol;
#X obj 694 449 r \$0_status;
#X obj 57 85 s \$0_print_args;
#X obj 818 15 r \$0_print_args;
#X floatatom 537 94 5 0 0 0 - - -;
#X obj 413 33 t b b b b b;
#X obj 537 73 \$4;
#X obj 861 347 s \$4_heartbeat_reply;
#X obj 380 215 r \$4_from_LP_GUI;
#X obj 48 574 s \$4_to_LP_GUI;
#X obj 694 480 t f f;
#X obj 694 506 sel 0;
#X obj 694 534 b;
#X msg 818 42 BUTTON ARGS \, 1: elem_id (pad no.) \, 2: color \, 3:
symbol \, 4: LP_GUI_id \;;
#X msg 380 383 0;
#X obj 380 267 spigot;
#X obj 380 358 t b b;
#X obj 380 293 f 0;
#X obj 380 314 t f f;
#X obj 380 335 sel 1;
#X obj 420 314 + 1;
#X obj 115 106 s \$0_print_outlets;
#X obj 832 78 r \$0_print_outlets;
#X msg 832 98 BUTTON OUTLETS \, 1: symbol \, 2: status \;;
#X obj 172 84 s \$0_print_methods;
#X obj 849 125 r \$0_print_methods;
#X obj 1041 503 bng 15 250 50 0 empty empty empty 17 7 0 10 -262144
-1 -1;
#X obj 1080 612 s \$0_print_args;
#X obj 1041 563 s \$0_print_outlets;
#X obj 1060 586 s \$0_print_methods;
#X obj 1041 528 t b b b;
#X obj 48 211 min 108;
#X obj 230 106 s \$0_color_bg;
#X obj 240 126 s \$0_color_fg;
#X obj 380 404 t f f;
#X obj 192 190 r \$0_color_bg;
#X obj 192 211 t b f b;
#X obj 861 238 r \$4_heartbeat;
#X obj 861 262 t b b;
#X msg 861 283 1;
#X obj 861 304 spigot 1;
#X obj 231 242 s \$0_change_color_bg;
#X obj 211 267 s \$0_color;
#X obj 526 218 r \$0_change_color_bg;
#X obj 526 239 t b b;
#X msg 526 260 1;
#X msg 553 260 0;
#X msg 849 147 BUTTON METHODS \, color_bg \, color_fg \;;
#X obj 272 154 s \$0_toggle_mode;
#X obj 303 84 != 0;
#X obj 48 39 route bang print_args print_outlets print_methods color_bg
color_fg toggle off_on;
#X obj 333 84 s \$0_off_on;
#X text 53 644 Copyright 2019-2020 Focusrite Audio Engineering Limited.
;
#X text 84 766 http://www.apache.org/licenses/LICENSE-2.0;
#X text 54 674 Licensed under the Apache License \, Version 2 (the
"License") \; you may not use this file except in compliance with the
License.;
#X text 54 731 You may obtain a copy of the License at;
#X text 54 796 Unless required by applicable law or agreed to in writing
\, software distributed under the License is distributed on an "AS
IS" BASIS \, WITHOUT WARRANTIES OR CONDITIONS OF ANY KIND \, either
express or implied.;
#X text 54 852 See the License for the specific language governing
permissions and limitations under the License.;
#X connect 0 0 81 0;
#X connect 1 0 21 0;
#X connect 2 0 3 0;
#X connect 3 0 7 0;
#X connect 3 1 62 0;
#X connect 4 0 38 0;
#X connect 5 0 36 0;
#X connect 7 0 46 1;
#X connect 9 0 40 0;
#X connect 12 0 18 0;
#X connect 13 0 12 0;
#X connect 17 0 21 1;
#X connect 19 0 20 0;
#X connect 20 0 17 0;
#X connect 21 0 22 1;
#X connect 22 0 9 0;
#X connect 25 0 10 0;
#X connect 26 0 27 0;
#X connect 28 0 29 0;
#X connect 29 0 30 0;
#X connect 31 0 25 1;
#X connect 32 0 41 0;
#X connect 34 0 44 0;
#X connect 36 0 2 0;
#X connect 36 1 13 0;
#X connect 36 2 28 0;
#X connect 36 3 37 0;
#X connect 36 4 26 0;
#X connect 37 0 35 0;
#X connect 39 0 46 0;
#X connect 41 0 42 0;
#X connect 41 1 11 0;
#X connect 42 1 43 0;
#X connect 43 0 25 0;
#X connect 44 0 15 0;
#X connect 45 0 65 0;
#X connect 46 0 48 0;
#X connect 47 0 45 0;
#X connect 47 1 22 0;
#X connect 48 0 49 0;
#X connect 49 0 50 0;
#X connect 49 1 51 0;
#X connect 50 0 47 0;
#X connect 51 0 48 1;
#X connect 53 0 54 0;
#X connect 54 0 15 0;
#X connect 56 0 78 0;
#X connect 57 0 61 0;
#X connect 61 0 59 0;
#X connect 61 1 60 0;
#X connect 61 2 58 0;
#X connect 62 0 1 0;
#X connect 65 0 48 1;
#X connect 65 1 46 1;
#X connect 66 0 67 0;
#X connect 67 0 62 0;
#X connect 67 1 73 0;
#X connect 67 2 72 0;
#X connect 68 0 69 0;
#X connect 69 0 70 0;
#X connect 69 1 71 0;
#X connect 70 0 71 1;
#X connect 71 0 4 0;
#X connect 74 0 75 0;
#X connect 75 0 76 0;
#X connect 75 1 77 0;
#X connect 76 0 46 1;
#X connect 77 0 71 1;
#X connect 78 0 15 0;
#X connect 80 0 79 0;
#X connect 81 0 62 0;
#X connect 81 1 33 0;
#X connect 81 2 52 0;
#X connect 81 3 55 0;
#X connect 81 4 63 0;
#X connect 81 5 64 0;
#X connect 81 6 80 0;
#X connect 81 7 82 0;
#X coords 0 -1 1 1 160 20 1 900 500;
