#N canvas 223 68 824 457 10;
#X obj 42 10 inlet;
#X obj 41 175 sel 0;
#X msg 41 279 0 25;
#X obj 81 195 b;
#X obj 41 350 line~;
#X obj 41 386 outlet~;
#X floatatom 250 183 5 0 0 0 - - -;
#X floatatom 250 200 5 0 0 0 - - -;
#X msg 81 279 1 2;
#X msg 135 240 set 1 \$1;
#X msg 145 260 set 0 \$1;
#X obj 286 183 hsl 128 15 1 1500 0 0 empty empty attack 5 8 0 10 -204800
-1 -1 8 0;
#X obj 286 200 hsl 128 15 1 1500 0 0 empty empty release 5 8 0 10 -262130
-1 -1 203 0;
#X obj 285 111 loadbang;
#X msg 285 132 2;
#X msg 315 132 25;
#X obj 165 210 t f f;
#X obj 120 210 t f f;
#X msg 261 237 set \$1;
#X msg 261 257 set \$1;
#X obj 42 41 route float attack release print_methods print_outlets
;
#X obj 234 62 s \$0_print_methods;
#X obj 298 86 s \$0_print_outlets;
#X obj 501 38 r \$0_print_methods;
#X obj 518 87 r \$0_print_outlets;
#X msg 501 60 ENVELOPE METHODS \, attack \, release \;;
#X msg 518 108 ENVELOPE OUTLETS \, 1: envelope (signal) \;;
#X obj 501 137 print -n;
#X text 444 184 Copyright 2019-2020 Focusrite Audio Engineering Limited.
;
#X text 475 306 http://www.apache.org/licenses/LICENSE-2.0;
#X text 445 214 Licensed under the Apache License \, Version 2 (the
"License") \; you may not use this file except in compliance with the
License.;
#X text 445 271 You may obtain a copy of the License at;
#X text 445 336 Unless required by applicable law or agreed to in writing
\, software distributed under the License is distributed on an "AS
IS" BASIS \, WITHOUT WARRANTIES OR CONDITIONS OF ANY KIND \, either
express or implied.;
#X text 445 392 See the License for the specific language governing
permissions and limitations under the License.;
#X connect 0 0 20 0;
#X connect 1 0 2 0;
#X connect 1 1 3 0;
#X connect 2 0 4 0;
#X connect 3 0 8 0;
#X connect 4 0 5 0;
#X connect 6 0 17 0;
#X connect 7 0 16 0;
#X connect 8 0 4 0;
#X connect 9 0 8 0;
#X connect 10 0 2 0;
#X connect 11 0 9 0;
#X connect 11 0 18 0;
#X connect 12 0 10 0;
#X connect 12 0 19 0;
#X connect 13 0 14 0;
#X connect 13 0 15 0;
#X connect 14 0 11 0;
#X connect 15 0 12 0;
#X connect 16 0 12 0;
#X connect 16 1 10 0;
#X connect 17 0 11 0;
#X connect 17 1 9 0;
#X connect 18 0 6 0;
#X connect 19 0 7 0;
#X connect 20 0 1 0;
#X connect 20 1 6 0;
#X connect 20 2 7 0;
#X connect 20 3 21 0;
#X connect 20 4 22 0;
#X connect 23 0 25 0;
#X connect 24 0 26 0;
#X connect 25 0 27 0;
#X connect 26 0 27 0;
#X coords 0 -1 1 1 168 38 2 250 180;
