#N canvas 0 23 1280 755 10;
#X obj 40 297 +~ 1;
#X obj 65 241 - 2;
#X obj 40 275 *~ 0;
#X obj 74 443 *~;
#X obj 216 580 hsl 128 15 0 1 0 0 empty empty volume 5 8 0 10 -262144
-1 -1 0 0;
#X obj 213 600 t f f;
#X obj 213 622 *;
#X floatatom 213 644 5 0 0 0 - - -;
#X obj 189 326 +~;
#X obj 283 223 line~;
#X obj 283 201 pack 0 10;
#X floatatom 343 177 5 0 0 1 offsetPorta - -;
#X obj 423 23 inlet;
#X obj 246 23 inlet;
#X obj 333 23 inlet;
#X text 329 2 granoOffset;
#X text 419 2 volume;
#X obj 74 634 outlet~;
#X obj 543 23 inlet;
#X text 539 2 offsetPorta;
#X obj 245 285 samphold~;
#X obj 283 125 max 0;
#X obj 283 177 min;
#X obj 358 135 t b f;
#X obj 134 634 outlet~;
#N canvas 1 78 450 300 volume 0;
#X msg 91 95 \$1 5;
#X obj 91 119 line~;
#X floatatom 171 72 5 0 0 0 - - -;
#X obj 74 150 *~;
#X obj 59 43 inlet~;
#X obj 55 209 outlet~;
#X obj 189 43 inlet;
#X connect 0 0 1 0;
#X connect 1 0 3 1;
#X connect 2 0 0 0;
#X connect 3 0 5 0;
#X connect 4 0 3 0;
#X connect 6 0 2 0;
#X restore 74 580 pd volume;
#X obj 366 580 hsl 128 15 0 1 0 0 empty empty panpot 5 8 0 10 -262144
-1 -1 6350 0;
#X obj 473 23 inlet;
#X text 469 2 panpot;
#X obj 781 3 loadbang;
#X msg 781 25 0.5;
#N canvas 37 225 573 393 pan 0;
#X obj 37 227 pack 0 10;
#X obj 37 257 line~;
#X obj 93 309 *~;
#X obj 183 230 pack 0 10;
#X obj 183 260 line~;
#X obj 151 311 *~;
#X obj 38 162 expr 1-$f1;
#X obj 93 352 outlet~;
#X obj 152 352 outlet~;
#X obj 174 15 inlet;
#X obj 173 71 min 1;
#X obj 173 99 max 0;
#X obj 26 17 inlet~;
#X connect 0 0 1 0;
#X connect 1 0 2 0;
#X connect 2 0 7 0;
#X connect 3 0 4 0;
#X connect 4 0 5 1;
#X connect 5 0 8 0;
#X connect 6 0 0 0;
#X connect 9 0 10 0;
#X connect 10 0 11 0;
#X connect 11 0 6 0;
#X connect 11 0 3 0;
#X connect 12 0 2 1;
#X connect 12 0 5 0;
#X restore 74 604 pd pan;
#X obj 40 108 phasor~;
#X floatatom 161 87 5 0 0 2 pitch - -;
#X obj 39 11 inlet~;
#X msg 811 25 1;
#X text 241 2 granoPitch;
#X obj 633 23 inlet;
#X text 629 2 granoSize;
#X floatatom 633 44 7 0 0 0 - - -;
#X obj 633 64 * 0.5;
#X msg 633 85 \$1;
#X obj 460 297 +~ 1;
#X obj 485 241 - 2;
#X obj 460 275 *~ 0;
#X obj 609 326 +~;
#X obj 665 285 samphold~;
#X obj 481 163 wrap~;
#X floatatom 691 150 5 0 0 2 pitch - -;
#X obj 74 514 *~ 0.5;
#X obj 460 368 *~;
#X obj 481 142 +~ 0.25;
#X obj 750 297 +~ 1;
#X obj 775 241 - 2;
#X obj 750 275 *~ 0;
#X obj 899 326 +~;
#X obj 955 285 samphold~;
#X obj 771 163 wrap~;
#X floatatom 981 150 5 0 0 2 pitch - -;
#X obj 750 368 *~;
#X obj 771 142 +~ 0.5;
#X obj 1030 297 +~ 1;
#X obj 1055 241 - 2;
#X obj 1030 275 *~ 0;
#X obj 1179 326 +~;
#X obj 1235 285 samphold~;
#X obj 1051 163 wrap~;
#X floatatom 1261 150 5 0 0 2 pitch - -;
#X obj 1030 368 *~;
#X obj 1051 142 +~ 0.75;
#X obj 40 347 tabread4~ window_\$2;
#X obj 460 347 tabread4~ window_\$2;
#X obj 750 347 tabread4~ window_\$2;
#X obj 1030 347 tabread4~ window_\$2;
#N canvas 330 252 450 300 ACCUMULATOR 0;
#X floatatom 232 119 5 0 0 1 pitch(ratio) - -;
#X obj 114 212 outlet~;
#X obj 249 52 inlet;
#X obj 109 52 inlet~;
#X text 87 25 in==0 reset phasor;
#X obj 114 171 fexpr~ ($x3[0] > $x3[-1])*($x1[0] + ($y1[-1]+$f2));
#X connect 0 0 5 1;
#X connect 2 0 0 0;
#X connect 3 0 5 2;
#X connect 5 0 1 0;
#X restore 99 108 pd ACCUMULATOR;
#N canvas 1 78 450 300 ACCUMULATOR 0;
#X floatatom 232 119 5 0 0 1 pitch(ratio) - -;
#X obj 114 212 outlet~;
#X obj 249 52 inlet;
#X obj 109 52 inlet~;
#X text 87 25 in==0 reset phasor;
#X obj 114 171 fexpr~ ($x3[0] > $x3[-1])*($x1[0] + ($y1[-1]+$f2));
#X connect 0 0 5 1;
#X connect 2 0 0 0;
#X connect 3 0 5 2;
#X connect 5 0 1 0;
#X restore 629 171 pd ACCUMULATOR;
#N canvas 1 78 450 300 ACCUMULATOR 0;
#X floatatom 232 119 5 0 0 1 pitch(ratio) - -;
#X obj 114 212 outlet~;
#X obj 249 52 inlet;
#X obj 109 52 inlet~;
#X text 87 25 in==0 reset phasor;
#X obj 113 171 fexpr~ ($x3[0] > $x3[-1])*($x1[0] + ($y1[-1]+$f2));
#X connect 0 0 5 1;
#X connect 2 0 0 0;
#X connect 3 0 5 2;
#X connect 5 0 1 0;
#X restore 911 180 pd ACCUMULATOR;
#N canvas 0 23 450 300 ACCUMULATOR 0;
#X floatatom 232 119 5 0 0 1 pitch(ratio) - -;
#X obj 114 212 outlet~;
#X obj 249 52 inlet;
#X obj 109 52 inlet~;
#X text 87 25 in==0 reset phasor;
#X obj 114 171 fexpr~ ($x3[0] > $x3[-1])*($x1[0] + ($y1[-1]+$f2));
#X connect 0 0 5 1;
#X connect 2 0 0 0;
#X connect 3 0 5 2;
#X connect 5 0 1 0;
#X restore 1178 206 pd ACCUMULATOR;
#X obj 775 219 r \$2_windowSize;
#X obj 1055 219 r \$2_windowSize;
#X obj 485 220 r \$2_windowSize;
#X obj 65 219 r \$2_windowSize;
#X obj 609 363 tabread~ \$2_granoFile;
#X obj 898 364 tabread~ \$2_granoFile;
#X obj 1179 364 tabread~ \$2_granoFile;
#X obj 189 364 tabread~ \$2_granoFile;
#X obj 358 86 r \$2_maxOffset;
#X obj 89 48 r \$2_reset_phase;
#X text 707 466 Copyright 2019-2020 Focusrite Audio Engineering Limited.
;
#X text 738 588 http://www.apache.org/licenses/LICENSE-2.0;
#X text 708 496 Licensed under the Apache License \, Version 2 (the
"License") \; you may not use this file except in compliance with the
License.;
#X text 708 553 You may obtain a copy of the License at;
#X text 708 618 Unless required by applicable law or agreed to in writing
\, software distributed under the License is distributed on an "AS
IS" BASIS \, WITHOUT WARRANTIES OR CONDITIONS OF ANY KIND \, either
express or implied.;
#X text 708 674 See the License for the specific language governing
permissions and limitations under the License.;
#X connect 0 0 70 0;
#X connect 1 0 2 1;
#X connect 2 0 0 0;
#X connect 3 0 49 0;
#X connect 4 0 5 0;
#X connect 5 0 6 0;
#X connect 5 1 6 1;
#X connect 6 0 7 0;
#X connect 7 0 25 1;
#X connect 8 0 85 0;
#X connect 9 0 20 0;
#X connect 9 0 46 0;
#X connect 9 0 56 0;
#X connect 9 0 65 0;
#X connect 10 0 9 0;
#X connect 11 0 10 1;
#X connect 12 0 4 0;
#X connect 13 0 33 0;
#X connect 13 0 48 0;
#X connect 13 0 58 0;
#X connect 13 0 67 0;
#X connect 14 0 21 0;
#X connect 18 0 11 0;
#X connect 20 0 8 1;
#X connect 21 0 22 0;
#X connect 22 0 10 0;
#X connect 23 0 22 0;
#X connect 23 1 22 1;
#X connect 25 0 31 0;
#X connect 26 0 31 1;
#X connect 27 0 26 0;
#X connect 29 0 30 0;
#X connect 29 0 35 0;
#X connect 30 0 26 0;
#X connect 31 0 17 0;
#X connect 31 1 24 0;
#X connect 32 0 20 1;
#X connect 32 0 2 0;
#X connect 32 0 51 0;
#X connect 32 0 60 0;
#X connect 32 0 69 0;
#X connect 32 0 74 0;
#X connect 33 0 74 1;
#X connect 34 0 32 0;
#X connect 35 0 33 0;
#X connect 35 0 48 0;
#X connect 35 0 58 0;
#X connect 35 0 67 0;
#X connect 37 0 39 0;
#X connect 39 0 40 0;
#X connect 40 0 41 0;
#X connect 42 0 71 0;
#X connect 43 0 44 1;
#X connect 44 0 42 0;
#X connect 45 0 82 0;
#X connect 46 0 45 1;
#X connect 47 0 44 0;
#X connect 47 0 75 0;
#X connect 48 0 75 1;
#X connect 49 0 25 0;
#X connect 50 0 49 0;
#X connect 51 0 47 0;
#X connect 52 0 72 0;
#X connect 53 0 54 1;
#X connect 54 0 52 0;
#X connect 55 0 83 0;
#X connect 56 0 55 1;
#X connect 57 0 54 0;
#X connect 57 0 76 0;
#X connect 58 0 76 1;
#X connect 59 0 49 0;
#X connect 60 0 57 0;
#X connect 61 0 73 0;
#X connect 62 0 63 1;
#X connect 63 0 61 0;
#X connect 64 0 84 0;
#X connect 65 0 64 1;
#X connect 66 0 63 0;
#X connect 66 0 77 0;
#X connect 67 0 77 1;
#X connect 68 0 49 0;
#X connect 69 0 66 0;
#X connect 70 0 3 0;
#X connect 71 0 50 0;
#X connect 72 0 59 0;
#X connect 73 0 68 0;
#X connect 74 0 8 0;
#X connect 75 0 45 0;
#X connect 75 0 46 1;
#X connect 76 0 56 1;
#X connect 76 0 55 0;
#X connect 77 0 65 1;
#X connect 77 0 64 0;
#X connect 78 0 53 0;
#X connect 79 0 62 0;
#X connect 80 0 43 0;
#X connect 81 0 1 0;
#X connect 82 0 50 1;
#X connect 83 0 59 1;
#X connect 84 0 68 1;
#X connect 85 0 3 1;
#X connect 86 0 23 0;
#X connect 87 0 32 1;
