#N canvas 0 23 667 467 10;
#X obj 104 157 t b f;
#X obj 104 269 t f f;
#X floatatom 104 290 5 0 0 0 - - -;
#X obj 104 178 f;
#X obj 104 199 +;
#X obj 104 136 1;
#X obj 145 136 - 1;
#X obj 104 70 inlet;
#X obj 145 70 inlet;
#X obj 104 321 outlet;
#X obj 104 103 bng 15 250 50 0 empty empty inc 17 7 0 10 -262144 -1
-1;
#X obj 145 103 bng 15 250 50 0 empty empty dec 17 7 0 10 -262144 -1
-1;
#X obj 235 70 inlet;
#X text 231 36 feedback in in case range \; needs to be clipped outsite
;
#X text 271 181 Copyright 2019-2020 Focusrite Audio Engineering Limited.
;
#X text 302 303 http://www.apache.org/licenses/LICENSE-2.0;
#X text 272 211 Licensed under the Apache License \, Version 2 (the
"License") \; you may not use this file except in compliance with the
License.;
#X text 272 268 You may obtain a copy of the License at;
#X text 272 333 Unless required by applicable law or agreed to in writing
\, software distributed under the License is distributed on an "AS
IS" BASIS \, WITHOUT WARRANTIES OR CONDITIONS OF ANY KIND \, either
express or implied.;
#X text 272 389 See the License for the specific language governing
permissions and limitations under the License.;
#X connect 0 0 3 0;
#X connect 0 1 4 1;
#X connect 1 0 2 0;
#X connect 1 1 3 1;
#X connect 2 0 9 0;
#X connect 3 0 4 0;
#X connect 4 0 1 0;
#X connect 5 0 0 0;
#X connect 6 0 0 0;
#X connect 7 0 10 0;
#X connect 8 0 11 0;
#X connect 10 0 5 0;
#X connect 11 0 6 0;
#X connect 12 0 3 1;
#X coords 0 -1 1 1 85 20 2 100 100;
