#N canvas 1 78 910 587 10;
#X obj 567 143 inlet~;
#N canvas 0 23 450 278 (subpatch) 0;
#X array \$0_plot 32 float 1;
#A 0 0 0 0 0 0 0 0 0 0 0 0 0 0 0 0 0 0 0 0 0 0 0 0 0 0 0 0 0 0 0 0
0;
#X coords 0 1 31 -1 250 175 2 0 0;
#X restore 112 117 graph;
#X msg 791 173 set \$1;
#X obj 791 195 block~ 512;
#X obj 370 117 vradio 15 1 0 12 empty empty empty 0 -8 0 10 -262144
-1 -1 2;
#X obj 695 254 pow;
#X obj 677 213 t b f;
#X msg 677 235 2;
#X floatatom 695 276 5 0 0 0 - - -;
#X obj 695 295 t f f;
#X text 323 101 resolution;
#X obj 535 7 loadbang;
#X msg 535 56 2;
#X obj 725 226 + 3;
#X obj 575 76 s \$0_plot;
#X msg 653 347 resize \$1;
#X obj 653 368 s \$0_plot;
#X obj 162 101 cnv 15 87 15 empty empty OSCILLOSCOPE 1 9 0 12 -233017
-66577 0;
#X obj 567 227 tabwrite~ \$0_plot;
#X obj 591 194 bang~;
#X msg 575 35 const 0 \, ylabel 0 -1 0 1;
#X text 45 345 Copyright 2019-2020 Focusrite Audio Engineering Limited.
;
#X text 76 467 http://www.apache.org/licenses/LICENSE-2.0;
#X text 46 375 Licensed under the Apache License \, Version 2 (the
"License") \; you may not use this file except in compliance with the
License.;
#X text 46 432 You may obtain a copy of the License at;
#X text 46 497 Unless required by applicable law or agreed to in writing
\, software distributed under the License is distributed on an "AS
IS" BASIS \, WITHOUT WARRANTIES OR CONDITIONS OF ANY KIND \, either
express or implied.;
#X text 46 553 See the License for the specific language governing
permissions and limitations under the License.;
#X connect 0 0 18 0;
#X connect 2 0 3 0;
#X connect 4 0 6 0;
#X connect 5 0 8 0;
#X connect 6 0 7 0;
#X connect 6 1 13 0;
#X connect 7 0 5 0;
#X connect 8 0 9 0;
#X connect 9 0 15 0;
#X connect 9 1 2 0;
#X connect 11 0 20 0;
#X connect 11 0 12 0;
#X connect 12 0 4 0;
#X connect 13 0 5 1;
#X connect 15 0 16 0;
#X connect 19 0 18 0;
#X connect 20 0 14 0;
#X coords 0 -1 1 1 290 205 2 100 100;
