#N canvas 554 23 697 755 10;
#X obj 112 201 inlet;
#X obj 101 101 cnv 15 90 20 empty \$0_print empty 1 10 0 12 -228856
-66577 0;
#X obj 112 518 list prepend label;
#X obj 112 539 list trim;
#X obj 112 560 s \$0_print;
#X obj 112 286 makefilename %s;
#X obj 257 451 makefilename;
#X msg 276 497 set \$1_%s;
#X msg 257 416 set %s;
#X obj 153 365 list split 1;
#X obj 179 415 list store;
#X obj 153 386 t b l;
#X obj 153 338 t l b;
#X obj 153 312 list;
#X obj 37 37 loadbang;
#X msg 366 337 coords 0 -1 1 1 \$1 \$2 2 100 100;
#X obj 366 318 pack 153 23;
#X floatatom 339 200 5 0 0 1 xsize - -;
#X msg 339 392 vis_size \$1 20;
#X obj 339 413 s \$0_print;
#X obj 366 292 + 3;
#X obj 339 272 t f f;
#X obj 364 56 namecanvas \$0_print_2;
#X obj 366 359 s \$0_print_2;
#X text 366 29 otherwise all instances \; will be modified;
#X obj 419 451 list fromsymbol;
#X obj 419 472 list length;
#X obj 419 513 * 7;
#X obj 112 260 t f b;
#X msg 169 259 90;
#X msg 37 58 90;
#X obj 339 225 change;
#X obj 339 251 max 90;
#X obj 257 471 t s s s;
#X obj 235 307 t s s;
#X msg 67 483 symbol;
#X obj 65 354 t b b;
#X obj 112 235 route float list size symbol _clean;
#X text 68 617 Copyright 2019-2020 Focusrite Audio Engineering Limited.
;
#X text 99 739 http://www.apache.org/licenses/LICENSE-2.0;
#X text 69 647 Licensed under the Apache License \, Version 2 (the
"License") \; you may not use this file except in compliance with the
License.;
#X text 69 704 You may obtain a copy of the License at;
#X text 69 769 Unless required by applicable law or agreed to in writing
\, software distributed under the License is distributed on an "AS
IS" BASIS \, WITHOUT WARRANTIES OR CONDITIONS OF ANY KIND \, either
express or implied.;
#X text 69 825 See the License for the specific language governing
permissions and limitations under the License.;
#X connect 0 0 37 0;
#X connect 2 0 3 0;
#X connect 3 0 4 0;
#X connect 5 0 2 0;
#X connect 6 0 33 0;
#X connect 7 0 6 0;
#X connect 8 0 6 0;
#X connect 9 0 11 0;
#X connect 9 1 10 1;
#X connect 10 0 9 0;
#X connect 11 0 10 0;
#X connect 11 1 6 0;
#X connect 12 0 9 0;
#X connect 12 1 8 0;
#X connect 13 0 12 0;
#X connect 14 0 2 0;
#X connect 14 0 30 0;
#X connect 15 0 23 0;
#X connect 16 0 15 0;
#X connect 17 0 31 0;
#X connect 18 0 19 0;
#X connect 20 0 16 0;
#X connect 21 0 18 0;
#X connect 21 1 20 0;
#X connect 25 0 26 0;
#X connect 26 0 27 0;
#X connect 27 0 17 0;
#X connect 28 0 5 0;
#X connect 28 1 29 0;
#X connect 29 0 17 0;
#X connect 30 0 17 0;
#X connect 31 0 32 0;
#X connect 32 0 21 0;
#X connect 33 0 2 0;
#X connect 33 1 7 0;
#X connect 33 2 25 0;
#X connect 34 0 2 0;
#X connect 34 1 25 0;
#X connect 35 0 2 0;
#X connect 36 0 29 0;
#X connect 36 1 35 0;
#X connect 37 0 28 0;
#X connect 37 1 13 0;
#X connect 37 2 17 0;
#X connect 37 3 34 0;
#X connect 37 4 36 0;
#X connect 37 5 13 0;
#X coords 0 -1 1 1 93 23 2 100 100;
