#N canvas 0 23 906 356 12;
#X obj 151 36 loadbang;
#X msg 151 57 1;
#X obj 151 78 tgl 15 0 empty empty empty 17 7 0 10 -262144 -1 -1 1
1;
#X obj 151 99 metro 25;
#X obj 151 120 snapshot~;
#X floatatom 151 151 9 0 0 0 - - -;
#X obj 60 37 inlet~;
#X text 380 37 Copyright 2019-2020 Focusrite Audio Engineering Limited.
;
#X text 411 159 http://www.apache.org/licenses/LICENSE-2.0;
#X text 381 67 Licensed under the Apache License \, Version 2 (the
"License") \; you may not use this file except in compliance with the
License.;
#X text 381 124 You may obtain a copy of the License at;
#X text 381 189 Unless required by applicable law or agreed to in writing
\, software distributed under the License is distributed on an "AS
IS" BASIS \, WITHOUT WARRANTIES OR CONDITIONS OF ANY KIND \, either
express or implied.;
#X text 381 245 See the License for the specific language governing
permissions and limitations under the License.;
#X connect 0 0 1 0;
#X connect 1 0 2 0;
#X connect 2 0 3 0;
#X connect 3 0 4 0;
#X connect 4 0 5 0;
#X connect 6 0 4 0;
#X coords 0 -1 1 1 67 20 2 150 150;
