#N canvas 65 23 1215 755 10;
#X obj 48 8 inlet;
#X obj 48 122 max 0;
#X obj 413 75 \$1;
#X obj 413 98 t b f;
#X obj 413 13 loadbang;
#X text 438 227 send msg to LP_GUI only once \; when LP_GUI asks for
\;;
#X msg 413 126 1;
#X text 229 511 MSG TO LP_GUI \; \; list where first element is the
object name \; followed by a list of pairs of integers \; where 1st
is "elem_id" (pad/button) and \; 2nd is the color \;;
#X obj 48 527 list prepend obj_\$0;
#X obj 824 571 outlet;
#X obj 818 214 print -n;
#N canvas 307 23 701 691 PROCESSING 0;
#X obj 53 93 r to_obj_\$0;
#X obj 53 164 unpack 0 0 0;
#X text 144 165 elem_id \, color \, status \;;
#X obj 53 416 pack;
#X text 93 415 elem_id \, color \;;
#X obj 122 218 s \$0_status;
#X text 38 12 when live interaction happens (press pad/button on actual
HW) \, LP_GUI send 'elem_id' \, 'color' and 'status' to the right object
\, that then can reply ('elem_id' and 'color') to trigger visual feedback
on the device (ie light up a pad) \;;
#X text 92 467 to LP hardware \;;
#X text 206 218 to object outlet \;;
#X obj 89 360 r \$0_color_on;
#X obj 74 385 f;
#X obj 166 385 f;
#X obj 181 361 r \$0_color_off;
#X obj 388 362 tabread \$0_BUFFER;
#X obj 415 413 route -1;
#X msg 371 144 0;
#X obj 371 218 until;
#X obj 371 270 f 0;
#X obj 441 302 + 1;
#X msg 388 242 0;
#X obj 371 101 r \$0_length;
#X msg 371 123 set \$1;
#X obj 388 382 t f f;
#X obj 460 435 b;
#X obj 53 244 t b f;
#X obj 53 205 stripnote;
#X obj 122 191 t f f;
#X obj 442 470 f;
#X obj 415 435 t b b;
#X obj 442 532 /;
#X obj 504 473 r \$0_length;
#X obj 504 495 - 1;
#X obj 442 554 s \$0_abs_value;
#X obj 547 554 s \$0_index;
#X obj 442 492 t f f;
#X obj 53 512 list prepend;
#X obj 53 450 t l l;
#X obj 418 326 - 1;
#X obj 371 326 sel -1;
#X obj 371 302 t f f f f;
#X obj 53 534 t l l;
#X obj 32 565 list;
#X obj 32 589 list prepend obj_\$0;
#X obj 371 166 t f b f b;
#X obj 80 485 s \$6_MIDI_to_LP_GUI;
#X obj 32 617 s \$6_to_LP_GUI_obj_update;
#X obj 111 252 s \$0_p_touch;
#X text 487 302 set only the pressed pad to \; ON color and all the
others \; to OFF color \;;
#X obj 53 128 route list polytouch;
#X obj 25 288 r \$0_color_fg;
#X obj 25 309 min 127;
#X obj 25 330 max 0;
#X obj 145 309 min 127;
#X obj 145 330 max 0;
#X obj 145 288 r \$0_color_bg;
#X obj 25 360 t b f;
#X obj 535 141 tabread \$0_BUFFER;
#X msg 535 162 \$1 120 1 \, \$1 0 0;
#X obj 535 120 r \$0_select;
#X connect 0 0 48 0;
#X connect 1 0 25 0;
#X connect 1 2 26 0;
#X connect 3 0 36 0;
#X connect 9 0 10 1;
#X connect 10 0 3 1;
#X connect 11 0 3 1;
#X connect 12 0 11 1;
#X connect 13 0 22 0;
#X connect 14 0 28 0;
#X connect 14 1 23 0;
#X connect 15 0 43 0;
#X connect 16 0 17 0;
#X connect 17 0 39 0;
#X connect 18 0 17 1;
#X connect 19 0 17 1;
#X connect 20 0 21 0;
#X connect 21 0 15 0;
#X connect 22 0 3 0;
#X connect 22 1 14 0;
#X connect 23 0 11 0;
#X connect 24 0 15 0;
#X connect 24 1 14 1;
#X connect 25 0 24 0;
#X connect 26 0 5 0;
#X connect 26 1 25 1;
#X connect 27 0 34 0;
#X connect 28 0 10 0;
#X connect 28 1 27 0;
#X connect 29 0 32 0;
#X connect 30 0 31 0;
#X connect 31 0 29 1;
#X connect 34 0 29 0;
#X connect 34 1 33 0;
#X connect 35 0 40 0;
#X connect 36 0 35 0;
#X connect 36 1 44 0;
#X connect 37 0 38 1;
#X connect 38 0 41 0;
#X connect 39 0 38 0;
#X connect 39 1 13 0;
#X connect 39 2 27 1;
#X connect 39 3 18 0;
#X connect 40 0 41 1;
#X connect 40 1 35 1;
#X connect 41 0 42 0;
#X connect 42 0 45 0;
#X connect 43 0 16 0;
#X connect 43 1 19 0;
#X connect 43 2 37 0;
#X connect 43 3 35 1;
#X connect 48 0 1 0;
#X connect 48 1 46 0;
#X connect 49 0 50 0;
#X connect 50 0 51 0;
#X connect 51 0 55 0;
#X connect 52 0 53 0;
#X connect 53 0 11 1;
#X connect 54 0 52 0;
#X connect 55 0 15 0;
#X connect 55 1 10 1;
#X connect 56 0 57 0;
#X connect 57 0 1 0;
#X connect 58 0 56 0;
#X restore 678 360 pd PROCESSING;
#X obj 48 101 min 100;
#X obj 70 272 max 0;
#X obj 70 251 min 127;
#X obj 48 484 list store;
#X text 826 592 status;
#X floatatom 657 94 5 0 0 0 - - -;
#X obj 824 531 r \$0_status;
#X obj 105 64 s \$0_print_args;
#X obj 818 15 r \$0_print_args;
#X floatatom 497 94 5 0 0 0 - - -;
#X obj 497 73 \$3;
#X floatatom 457 94 5 0 0 0 - - -;
#X obj 457 114 s \$0_length;
#X obj 457 73 \$2;
#X floatatom 597 94 5 0 0 0 - - -;
#X obj 597 174 s \$0_orientation;
#X obj 93 367 r \$0_orientation;
#N canvas 474 184 591 462 SHAPE 0;
#X obj 39 37 inlet;
#X obj 179 37 inlet;
#X obj 259 37 inlet;
#X text 33 12 start point;
#X text 163 12 length;
#X obj 419 37 inlet;
#X text 413 12 orientation;
#X msg 179 89 set \$1;
#X msg 39 94 1;
#X obj 39 121 until;
#X obj 39 147 f 0;
#X msg 85 121 0;
#X obj 119 169 + 1;
#X obj 39 202 + 0;
#X obj 419 60 sel 0 1;
#X msg 419 82 1;
#X msg 449 82 10;
#X obj 39 284 pack;
#X obj 39 416 outlet;
#X obj 93 238 sel -1;
#X obj 173 201 - 1;
#X obj 39 336 list prepend;
#X obj 39 358 t l l;
#X obj 39 381 list;
#X obj 173 154 f;
#X obj 173 177 * 1;
#X obj 39 228 % 100;
#X obj 419 107 t b f f f;
#X text 253 12 on color;
#X obj 329 37 inlet;
#X text 323 12 off color;
#X obj 39 306 t l b;
#X obj 121 268 f;
#X obj 121 290 change -1;
#X obj 202 334 t f b;
#X obj 237 365 f 0;
#X obj 237 387 t f f;
#X obj 277 387 + 1;
#X msg 252 338 0;
#X obj 39 59 t b b f b b b;
#X obj 340 290 array define \$0_BUFFER;
#X msg 340 254 const -1;
#X obj 179 64 t f f f;
#X msg 251 108 resize \$1;
#X obj 251 130 s \$0_BUFFER;
#X obj 202 416 tabwrite \$0_BUFFER;
#X obj 39 170 t f f f;
#X obj 39 256 t f f;
#X connect 0 0 39 0;
#X connect 1 0 42 0;
#X connect 2 0 17 1;
#X connect 5 0 14 0;
#X connect 7 0 8 0;
#X connect 8 0 9 0;
#X connect 9 0 10 0;
#X connect 10 0 46 0;
#X connect 11 0 10 1;
#X connect 12 0 10 1;
#X connect 13 0 26 0;
#X connect 14 0 15 0;
#X connect 14 1 16 0;
#X connect 15 0 27 0;
#X connect 16 0 27 0;
#X connect 17 0 31 0;
#X connect 19 0 23 0;
#X connect 20 0 19 1;
#X connect 21 0 22 0;
#X connect 22 0 23 1;
#X connect 22 1 21 1;
#X connect 23 0 18 0;
#X connect 24 0 25 0;
#X connect 25 0 20 0;
#X connect 26 0 47 0;
#X connect 27 0 24 0;
#X connect 27 1 25 1;
#X connect 27 2 20 1;
#X connect 27 3 12 1;
#X connect 29 0 32 1;
#X connect 31 0 21 0;
#X connect 31 1 32 0;
#X connect 32 0 33 0;
#X connect 33 0 17 1;
#X connect 34 0 45 0;
#X connect 34 1 35 0;
#X connect 35 0 36 0;
#X connect 36 0 45 1;
#X connect 36 1 37 0;
#X connect 37 0 35 1;
#X connect 38 0 35 1;
#X connect 39 0 8 0;
#X connect 39 1 11 0;
#X connect 39 2 13 1;
#X connect 39 3 21 1;
#X connect 39 4 38 0;
#X connect 39 5 41 0;
#X connect 41 0 40 0;
#X connect 42 0 7 0;
#X connect 42 1 24 0;
#X connect 42 2 43 0;
#X connect 43 0 44 0;
#X connect 46 0 19 0;
#X connect 46 1 13 0;
#X connect 46 2 12 0;
#X connect 47 0 17 0;
#X connect 47 1 34 0;
#X restore 48 446 pd SHAPE;
#X obj 59 153 r \$0_length;
#X obj 93 389 max 0;
#X obj 93 411 min 1;
#X obj 59 202 min 8;
#X obj 59 180 max 1;
#X obj 597 73 \$5;
#X obj 497 134 s \$0_color_on;
#X obj 70 229 r \$0_color_on;
#X floatatom 547 94 5 0 0 0 - - -;
#X obj 547 154 s \$0_color_off;
#X obj 547 73 \$4;
#X obj 81 341 max 0;
#X obj 81 320 min 127;
#X obj 81 298 r \$0_color_off;
#X obj 661 571 outlet;
#X obj 661 531 r \$0_abs_value;
#X obj 754 571 outlet;
#X obj 754 531 r \$0_index;
#X text 762 592 index;
#X text 649 592 abs value (0-1);
#X obj 717 73 \$0;
#X floatatom 717 94 5 0 0 0 - - -;
#X obj 657 73 \$6;
#X obj 413 33 t b b b b b b;
#X obj 835 256 r \$6_heartbeat;
#X obj 48 564 s \$6_to_LP_GUI;
#X obj 380 185 r \$6_from_LP_GUI;
#X obj 904 571 outlet;
#X obj 994 571 outlet;
#X obj 994 531 r \$0_p_touch;
#X msg 818 40 RADIO ARGS \, 1: elem_id (pad no.) \, 2: length \, 3:
on color \, 4: off color \, 5: orientation (horiz (0)/vert (1)) \,
6: LP_GUI_id \;;
#X text 896 592 aftertouch;
#X text 996 592 polytouch;
#X msg 380 323 0;
#X obj 380 298 t b b;
#X obj 380 233 f 0;
#X obj 380 254 t f f;
#X obj 380 275 sel 1;
#X obj 420 254 + 1;
#X obj 163 85 s \$0_print_outlets;
#X obj 826 94 r \$0_print_outlets;
#X msg 826 115 RADIO OUTLETS \, 1: abs value (0-1) \, 2: index \, 3:
status \, 4: aftertouch \, 5: polytouch \;;
#X obj 904 531 r _aftertouch;
#X obj 220 62 s \$0_print_methods;
#X obj 845 151 r \$0_print_methods;
#X obj 1088 403 bng 15 250 50 0 empty empty empty 17 7 0 10 -262144
-1 -1;
#X obj 1127 512 s \$0_print_args;
#X obj 1088 463 s \$0_print_outlets;
#X obj 1107 486 s \$0_print_methods;
#X obj 1088 428 t b b b;
#X obj 202 142 s \$0_color_bg;
#X obj 282 117 s \$0_color_fg;
#X obj 380 344 t f f;
#X obj 835 344 list store obj_\$0;
#X text 966 353 send 'obj_unique_id' to LP_GUI \;;
#X obj 835 365 s \$6_heartbeat_reply;
#X obj 835 277 t b b;
#X msg 835 298 1;
#X obj 835 321 spigot 1;
#X obj 183 117 t b f b;
#X obj 222 168 s \$0_change_color_bg;
#X obj 646 217 r \$0_change_color_bg;
#X obj 646 238 t b b;
#X msg 646 259 1;
#X msg 673 259 0;
#X obj 380 207 spigot 1;
#X obj 175 307 r \$0_color_bg;
#X obj 175 227 r \$0_color_fg;
#X msg 845 172 RADIO METHODS \, color_bg \, color_fg \;;
#X obj 48 30 route bang print_args print_outlets print_methods color_bg
color_fg select;
#X obj 300 85 s \$0_select;
#X text 688 642 Copyright 2019-2020 Focusrite Audio Engineering Limited.
;
#X text 719 764 http://www.apache.org/licenses/LICENSE-2.0;
#X text 689 672 Licensed under the Apache License \, Version 2 (the
"License") \; you may not use this file except in compliance with the
License.;
#X text 689 729 You may obtain a copy of the License at;
#X text 689 794 Unless required by applicable law or agreed to in writing
\, software distributed under the License is distributed on an "AS
IS" BASIS \, WITHOUT WARRANTIES OR CONDITIONS OF ANY KIND \, either
express or implied.;
#X text 689 850 See the License for the specific language governing
permissions and limitations under the License.;
#X connect 0 0 99 0;
#X connect 1 0 29 0;
#X connect 2 0 3 0;
#X connect 3 0 6 0;
#X connect 3 1 12 0;
#X connect 4 0 53 0;
#X connect 6 0 95 1;
#X connect 8 0 55 0;
#X connect 12 0 1 0;
#X connect 13 0 29 2;
#X connect 14 0 13 0;
#X connect 15 0 8 0;
#X connect 18 0 9 0;
#X connect 20 0 60 0;
#X connect 21 0 36 0;
#X connect 22 0 21 0;
#X connect 23 0 24 0;
#X connect 25 0 23 0;
#X connect 26 0 27 0;
#X connect 28 0 31 0;
#X connect 29 0 15 1;
#X connect 30 0 34 0;
#X connect 31 0 32 0;
#X connect 32 0 29 4;
#X connect 33 0 29 1;
#X connect 34 0 33 0;
#X connect 35 0 26 0;
#X connect 37 0 14 0;
#X connect 38 0 39 0;
#X connect 40 0 38 0;
#X connect 41 0 29 3;
#X connect 42 0 41 0;
#X connect 43 0 42 0;
#X connect 45 0 44 0;
#X connect 47 0 46 0;
#X connect 50 0 51 0;
#X connect 52 0 17 0;
#X connect 53 0 2 0;
#X connect 53 1 25 0;
#X connect 53 2 22 0;
#X connect 53 3 35 0;
#X connect 53 3 40 0;
#X connect 53 4 52 0;
#X connect 53 5 50 0;
#X connect 54 0 86 0;
#X connect 56 0 95 0;
#X connect 59 0 58 0;
#X connect 60 0 10 0;
#X connect 63 0 82 0;
#X connect 64 0 63 0;
#X connect 64 1 15 0;
#X connect 65 0 66 0;
#X connect 66 0 67 0;
#X connect 66 1 68 0;
#X connect 67 0 64 0;
#X connect 68 0 65 1;
#X connect 70 0 71 0;
#X connect 71 0 10 0;
#X connect 72 0 57 0;
#X connect 74 0 98 0;
#X connect 75 0 79 0;
#X connect 79 0 77 0;
#X connect 79 1 78 0;
#X connect 79 2 76 0;
#X connect 82 0 65 1;
#X connect 82 1 95 1;
#X connect 83 0 85 0;
#X connect 86 0 87 0;
#X connect 86 1 88 0;
#X connect 87 0 88 1;
#X connect 88 0 83 0;
#X connect 89 0 12 0;
#X connect 89 1 80 0;
#X connect 89 2 90 0;
#X connect 91 0 92 0;
#X connect 92 0 93 0;
#X connect 92 1 94 0;
#X connect 93 0 95 1;
#X connect 94 0 88 1;
#X connect 95 0 65 0;
#X connect 96 0 42 0;
#X connect 97 0 14 0;
#X connect 98 0 10 0;
#X connect 99 0 12 0;
#X connect 99 1 19 0;
#X connect 99 2 69 0;
#X connect 99 3 73 0;
#X connect 99 4 89 0;
#X connect 99 5 81 0;
#X connect 99 6 100 0;
#X coords 0 -1 1 1 155 20 1 950 400;
