#N canvas 324 60 808 645 10;
#X declare -path ./;
#X declare -path r_cycle;
#X obj 600 95 DSP_TOGGLE;
#X obj 600 52 DEVICE_SELECT;
#X obj 21 35 tgl 15 0 empty empty empty 17 7 0 10 -262144 -1 -1 0 1
;
#X msg 21 55 status \$1;
#X obj 44 25 cnv 15 90 25 empty empty TURN_ON_GUI 4 12 0 12 -258113
-66577 0;
#X obj 21 212 LP_GUI 0;
#X msg 186 69 device LP_X;
#X msg 186 29 device LP_Pro;
#X msg 186 89 device LPM_MK3;
#X msg 187 144 print_objects;
#X msg 187 164 print_args;
#X msg 187 184 print_methods;
#X text 279 69 select the device in use \;;
#X text 285 168 r_cycle methods \;;
#X text 18 606 This is [LP_GUI 0] \, the number 0 \; is its unique
identifier \;;
#X text 313 218 <<< click this and \; --- check the console \;;
#X text 510 389 HOW TO GET STARTED \; \; 1 select the Launchpad in
use \; 2 turn on the GUI \; 3 create [KEYBOARD 0 0 0] \;;
#X msg 186 49 device LP_Pro_MK3;
#X msg 69 123 reset;
#X msg 186 109 device LP2;
#X obj 600 10 declare -path ./;
#X obj 600 30 declare -path r_cycle;
#X text 18 659 Copyright 2019-2020 Focusrite Audio Engineering Limited.
;
#X text 49 781 http://www.apache.org/licenses/LICENSE-2.0;
#X text 19 689 Licensed under the Apache License \, Version 2 (the
"License") \; you may not use this file except in compliance with the
License.;
#X text 19 746 You may obtain a copy of the License at;
#X text 19 811 Unless required by applicable law or agreed to in writing
\, software distributed under the License is distributed on an "AS
IS" BASIS \, WITHOUT WARRANTIES OR CONDITIONS OF ANY KIND \, either
express or implied.;
#X text 19 867 See the License for the specific language governing
permissions and limitations under the License.;
#X connect 2 0 3 0;
#X connect 3 0 5 0;
#X connect 6 0 5 0;
#X connect 7 0 5 0;
#X connect 8 0 5 0;
#X connect 9 0 5 0;
#X connect 10 0 5 0;
#X connect 11 0 5 0;
#X connect 17 0 5 0;
#X connect 18 0 5 0;
#X connect 19 0 5 0;
