#N canvas 625 531 498 368 10;
#X obj 74 54 list prepend open;
#X obj 74 82 list trim;
#X obj 74 26 inlet;
#X obj 85 201 tabread4~;
#X obj 19 201 tabread4~;
#N canvas 2 74 928 634 declick 0;
#X obj 254 282 +~;
#X obj 272 253 line~;
#X obj 376 266 snapshot~;
#X msg 272 228 \$1 \, 0 10;
#X obj 343 89 t b b;
#X obj 272 169 line~;
#X obj 254 191 *~;
#X msg 272 143 0 \, 1 5;
#X obj 344 52 inlet;
#X obj 254 373 outlet~;
#X obj 255 57 inlet~;
#X connect 0 0 2 0;
#X connect 0 0 9 0;
#X connect 1 0 0 1;
#X connect 2 0 3 0;
#X connect 3 0 1 0;
#X connect 4 0 7 0;
#X connect 4 1 2 0;
#X connect 5 0 6 1;
#X connect 6 0 0 0;
#X connect 7 0 5 0;
#X connect 8 0 4 0;
#X connect 10 0 6 0;
#X restore 19 229 pd declick;
#N canvas 2 74 928 634 declick 0;
#X obj 254 282 +~;
#X obj 272 253 line~;
#X obj 376 266 snapshot~;
#X msg 272 228 \$1 \, 0 10;
#X obj 343 89 t b b;
#X obj 272 169 line~;
#X obj 254 191 *~;
#X msg 272 143 0 \, 1 5;
#X obj 344 52 inlet;
#X obj 254 373 outlet~;
#X obj 255 57 inlet~;
#X connect 0 0 2 0;
#X connect 0 0 9 0;
#X connect 1 0 0 1;
#X connect 2 0 3 0;
#X connect 3 0 1 0;
#X connect 4 0 7 0;
#X connect 4 1 2 0;
#X connect 5 0 6 1;
#X connect 6 0 0 0;
#X connect 7 0 5 0;
#X connect 8 0 4 0;
#X connect 10 0 6 0;
#X restore 85 229 pd declick;
#N canvas 68 292 450 300 playphasor 0;
#X obj 30 68 t b;
#X obj 30 29 inlet;
#X obj 30 93 samplerate~;
#X obj 29 125 /;
#X obj 29 156 *;
#X obj 115 50 f;
#X obj 115 73 t b;
#X text 28 9 length;
#X obj 115 25 inlet;
#X text 113 7 slice;
#X text 184 6 speed;
#X obj 186 24 inlet;
#X obj 186 48 f;
#X obj 30 186 phasor~;
#X obj 186 72 t b f;
#X obj 30 242 outlet~;
#X text 29 262 signal outlet;
#X obj 122 243 outlet;
#X text 118 261 declick;
#X obj 30 216 *~;
#X connect 0 0 2 0;
#X connect 1 0 0 0;
#X connect 1 0 3 1;
#X connect 1 0 19 1;
#X connect 2 0 3 0;
#X connect 3 0 4 0;
#X connect 4 0 13 0;
#X connect 5 0 6 0;
#X connect 5 0 13 1;
#X connect 5 0 17 0;
#X connect 5 0 0 0;
#X connect 8 0 5 0;
#X connect 11 0 12 0;
#X connect 12 0 14 0;
#X connect 12 0 17 0;
#X connect 13 0 19 0;
#X connect 14 0 4 0;
#X connect 14 1 4 1;
#X connect 19 0 15 0;
#X restore 235 173 pd playphasor;
#X obj 85 258 outlet~;
#X obj 19 259 outlet~;
#X msg 19 173 set \$1-1;
#X msg 85 173 set \$1-2;
#X obj 263 120 inlet;
#X obj 359 120 inlet;
#X obj 19 111 u_samplebank2 \$0-sample;
#X obj 19 139 unpack s f f f;
#X obj 19 25 inlet;
#X connect 0 0 1 0;
#X connect 1 0 14 0;
#X connect 2 0 0 0;
#X connect 3 0 6 0;
#X connect 4 0 5 0;
#X connect 5 0 9 0;
#X connect 6 0 8 0;
#X connect 7 0 3 0;
#X connect 7 0 4 0;
#X connect 7 1 6 1;
#X connect 7 1 5 1;
#X connect 10 0 4 0;
#X connect 11 0 3 0;
#X connect 12 0 7 1;
#X connect 13 0 7 2;
#X connect 14 0 15 0;
#X connect 15 0 10 0;
#X connect 15 0 11 0;
#X connect 15 2 7 0;
#X connect 16 0 14 0;
