#N canvas 842 432 235 299 10;
#X declare -path r_cycle;
#X declare -path ../;
#X obj 2 2 cnv 15 225 260 empty \$0_background QuasiEuclideanRhythmGen
5 10 0 10 -261234 -66577 0;
#N canvas 96 428 640 281 CORE 0;
#N canvas 1 78 405 262 UTILS 0;
#X obj 84 140 s \$0_l_bang;
#X obj 30 14 bng 15 250 50 0 empty empty empty 17 7 0 10 -262144 -1
-1;
#X obj 65 160 s \$0_l_bang_2;
#X msg 104 196 \; pd dsp 1 \;;
#X obj 65 117 t b b b;
#X obj 65 15 loadbang;
#X obj 216 26 declare -path r_cycle;
#X connect 1 0 4 0;
#X connect 4 0 2 0;
#X connect 4 1 0 0;
#X connect 4 2 3 0;
#X connect 5 0 4 0;
#X restore 19 20 pd UTILS;
#N canvas 258 83 696 615 CLOCK 0;
#X obj 160 216 tgl 15 0 empty empty empty 17 7 0 10 -262144 -1 -1 0
1;
#X floatatom 296 185 5 0 0 0 - - -;
#X floatatom 296 247 5 0 0 0 - - -;
#X obj 160 257 metro 20.83;
#X obj 160 190 r \$0_start_stop;
#X obj 160 278 s clock;
#X obj 212 278 s reset_position;
#X obj 296 226 / 6;
#X obj 296 36 r \$0_from_g_bpm;
#X obj 296 109 t f f;
#X msg 323 136 set \$1;
#X obj 323 157 s \$0_to_g_bpm;
#X obj 384 85 r \$0_l_bang;
#X msg 384 106 87;
#X obj 165 558 s \$0_background;
#X obj 165 494 pack 0 0;
#X obj 183 467 t b f;
#X obj 183 398 f 0;
#X obj 183 419 t f f;
#X obj 228 440 + 1;
#X obj 228 461 % 16;
#X floatatom 183 440 5 0 0 0 - - -;
#X obj 183 367 r clock;
#X obj 165 515 list prepend label_font;
#X obj 165 536 list trim;
#X obj 160 236 t f b f;
#X obj 135 375 sel 0;
#X msg 135 396 0;
#X msg 98 394 10;
#X obj 98 338 r \$0_l_bang;
#X text 328 225 to make it 16th (96 ticks per bar);
#X text 13 14 main clock that drives 'euclidean' modules \;;
#X obj 296 63 min 1000;
#X obj 296 84 max 5;
#X obj 296 205 BPM2MS;
#X text 224 402 amazing animation on main patch!!!!!;
#X connect 0 0 25 0;
#X connect 1 0 34 0;
#X connect 2 0 3 1;
#X connect 3 0 5 0;
#X connect 4 0 0 0;
#X connect 7 0 2 0;
#X connect 8 0 32 0;
#X connect 9 0 1 0;
#X connect 9 1 10 0;
#X connect 10 0 11 0;
#X connect 12 0 13 0;
#X connect 13 0 11 0;
#X connect 15 0 23 0;
#X connect 16 0 15 0;
#X connect 16 1 15 1;
#X connect 17 0 18 0;
#X connect 18 0 21 0;
#X connect 18 1 19 0;
#X connect 19 0 20 0;
#X connect 20 0 17 1;
#X connect 21 0 16 0;
#X connect 22 0 17 0;
#X connect 23 0 24 0;
#X connect 24 0 14 0;
#X connect 25 0 3 0;
#X connect 25 1 6 0;
#X connect 25 2 26 0;
#X connect 26 0 27 0;
#X connect 26 0 28 0;
#X connect 27 0 17 1;
#X connect 28 0 16 0;
#X connect 29 0 28 0;
#X connect 32 0 33 0;
#X connect 33 0 9 0;
#X connect 34 0 7 0;
#X restore 19 40 pd CLOCK;
#N canvas 0 23 620 442 AUDIO_CORE 0;
#X msg 112 228 read;
#X obj 136 372 dac~;
#X msg 172 278 read;
#X msg 272 228 read;
#X msg 332 278 read;
#X obj 70 14 r \$0_l_bang;
#X obj 194 184 r \$0_trig_0;
#X obj 274 184 r \$0_trig_1;
#X obj 354 184 r \$0_trig_2;
#X obj 434 184 r \$0_trig_3;
#X obj 70 35 t b b;
#X msg 245 54 velocity 127;
#X obj 505 105 r \$0_load_4;
#X msg 462 79 load;
#X msg 405 126 load;
#X msg 362 79 load;
#X obj 362 58 r \$0_load_1;
#X obj 405 105 r \$0_load_2;
#X obj 462 58 r \$0_load_3;
#X msg 505 126 load;
#X obj 296 251 SIMPLE_PLAYER;
#X obj 356 301 SIMPLE_PLAYER;
#X obj 196 301 SIMPLE_PLAYER;
#X obj 136 251 SIMPLE_PLAYER;
#X msg 41 93 read symbol ./audio/kick.wav;
#X msg 51 113 read symbol ./audio/snare.wav;
#X msg 41 133 read symbol ./audio/hh.wav;
#X msg 51 153 read symbol ./audio/tom.wav;
#X connect 0 0 23 0;
#X connect 2 0 22 0;
#X connect 3 0 20 0;
#X connect 4 0 21 0;
#X connect 5 0 10 0;
#X connect 6 0 23 0;
#X connect 7 0 22 0;
#X connect 8 0 20 0;
#X connect 9 0 21 0;
#X connect 10 0 11 0;
#X connect 10 1 24 0;
#X connect 10 1 27 0;
#X connect 10 1 26 0;
#X connect 10 1 25 0;
#X connect 11 0 20 0;
#X connect 11 0 21 0;
#X connect 11 0 22 0;
#X connect 11 0 23 0;
#X connect 12 0 19 0;
#X connect 13 0 20 0;
#X connect 14 0 22 0;
#X connect 15 0 23 0;
#X connect 16 0 15 0;
#X connect 17 0 14 0;
#X connect 18 0 13 0;
#X connect 19 0 21 0;
#X connect 20 0 1 0;
#X connect 20 0 1 1;
#X connect 21 0 1 0;
#X connect 21 0 1 1;
#X connect 22 0 1 0;
#X connect 22 0 1 1;
#X connect 23 0 1 0;
#X connect 23 0 1 1;
#X connect 24 0 23 0;
#X connect 25 0 22 0;
#X connect 26 0 20 0;
#X connect 27 0 21 0;
#X restore 19 79 pd AUDIO_CORE;
#N canvas 0 23 1280 755 MIDI 0;
#X floatatom 245 325 5 0 0 1 color - -;
#X obj 397 582 * 120;
#X obj 280 529 sel 19;
#X obj 397 480 != 0;
#X obj 397 501 sel 1;
#X msg 280 571 19;
#X obj 397 538 spigot;
#X obj 280 550 t b b b;
#X msg 456 507 1;
#X msg 482 507 0;
#X obj 265 597 f;
#X obj 109 226 s \$0_cc_value;
#X obj 118 251 s \$0_cc_number;
#X obj 280 502 r \$0_cc_number;
#X obj 397 453 r \$0_cc_value;
#X obj 397 603 t b f f;
#X obj 436 627 s \$0_start_stop;
#X obj 245 300 r to_color;
#X obj 211 279 r to_lp_in_1;
#X obj 14 253 s pad_row;
#X obj 24 273 s pad_column;
#X obj 416 648 s to_color;
#X obj 265 625 s to_lp_in_1;
#X obj 34 293 s pad_vel;
#X obj 14 177 FROM_LPP 1, f 21;
#X obj 211 435 TO_LPP, f 12;
#X obj 439 226 s \$0_cc_value;
#X obj 448 251 s \$0_cc_number;
#X obj 344 253 s pad_row;
#X obj 354 273 s pad_column;
#X obj 364 293 s pad_vel;
#X obj 344 177 FROM_LP_X 1, f 21;
#X obj 789 226 s \$0_cc_value;
#X obj 798 251 s \$0_cc_number;
#X obj 694 253 s pad_row;
#X obj 704 273 s pad_column;
#X obj 714 293 s pad_vel;
#X obj 694 177 FROM_LPM_MK3 1, f 21;
#X obj 14 142 == 0;
#X obj 694 142 == 2;
#X obj 344 142 == 1;
#X obj 211 407 spigot;
#X obj 551 435 TO_LP_X, f 12;
#X obj 911 435 TO_LPM_MK3, f 12;
#X obj 255 407 spigot;
#X floatatom 585 325 5 0 0 1 color - -;
#X obj 585 300 r to_color;
#X obj 551 279 r to_lp_in_1;
#X obj 551 407 spigot;
#X obj 595 407 spigot;
#X floatatom 945 325 5 0 0 1 color - -;
#X obj 945 300 r to_color;
#X obj 911 279 r to_lp_in_1;
#X obj 911 407 spigot;
#X obj 955 407 spigot;
#X obj 114 14 r \$0_from_g_device;
#X obj 141 56 s \$0_LP_type;
#X obj 14 120 r \$0_LP_type;
#X obj 344 120 r \$0_LP_type;
#X obj 694 120 r \$0_LP_type;
#X obj 114 76 s \$0_init_patterns;
#X obj 114 35 t b f;
#X text 249 24 select LP first \; then refresh its \; status (draw
GUI) \;;
#X msg 650 407 programmer_mode \$1;
#X msg 1010 407 programmer_mode \$1;
#X obj 316 359 == 0;
#X obj 656 359 == 1;
#X obj 1016 359 == 2;
#X obj 1016 337 r \$0_LP_type;
#X obj 656 337 r \$0_LP_type;
#X obj 316 337 r \$0_LP_type;
#X obj 316 381 t f f;
#X obj 656 381 t f f f;
#X obj 1016 381 t f f f;
#X obj 397 560 tgl 15 0 empty empty empty 17 7 0 10 -262144 -1 -1 0
1;
#X text 440 560 <<< GUI needed to \; --- flip between 0 and 1 \;;
#X obj 1119 226 s \$0_cc_value;
#X obj 1128 251 s \$0_cc_number;
#X obj 1054 253 s pad_row;
#X obj 1064 273 s pad_column;
#X obj 1074 293 s pad_vel;
#X obj 1054 120 r \$0_LP_type;
#X obj 1054 177 FROM_LPP3, f 21;
#X obj 1054 142 == 3;
#X floatatom 1265 325 5 0 0 1 color - -;
#X obj 1265 300 r to_color;
#X obj 1231 279 r to_lp_in_1;
#X obj 1231 407 spigot;
#X obj 1275 407 spigot;
#X msg 1330 407 programmer_mode \$1;
#X obj 1336 337 r \$0_LP_type;
#X obj 1336 381 t f f f;
#X obj 1336 359 == 3;
#X obj 1231 435 TO_LPP3, f 12;
#X obj 1054 215 - 1;
#X text 951 212 cause LPP3 has \; 1 row more;
#X connect 0 0 44 0;
#X connect 1 0 15 0;
#X connect 2 0 7 0;
#X connect 2 1 9 0;
#X connect 3 0 4 0;
#X connect 4 0 6 0;
#X connect 5 0 10 1;
#X connect 6 0 74 0;
#X connect 7 0 5 0;
#X connect 7 2 8 0;
#X connect 8 0 6 1;
#X connect 9 0 6 1;
#X connect 10 0 22 0;
#X connect 13 0 2 0;
#X connect 14 0 3 0;
#X connect 15 0 10 0;
#X connect 15 1 21 0;
#X connect 15 2 16 0;
#X connect 17 0 0 0;
#X connect 18 0 41 0;
#X connect 24 0 19 0;
#X connect 24 1 20 0;
#X connect 24 4 23 0;
#X connect 24 7 11 0;
#X connect 24 8 12 0;
#X connect 31 0 28 0;
#X connect 31 1 29 0;
#X connect 31 4 30 0;
#X connect 31 7 26 0;
#X connect 31 8 27 0;
#X connect 37 0 34 0;
#X connect 37 1 35 0;
#X connect 37 4 36 0;
#X connect 37 5 32 0;
#X connect 37 6 33 0;
#X connect 38 0 24 0;
#X connect 39 0 37 0;
#X connect 40 0 31 0;
#X connect 41 0 25 0;
#X connect 44 0 25 1;
#X connect 45 0 49 0;
#X connect 46 0 45 0;
#X connect 47 0 48 0;
#X connect 48 0 42 0;
#X connect 49 0 42 1;
#X connect 50 0 54 0;
#X connect 51 0 50 0;
#X connect 52 0 53 0;
#X connect 53 0 43 0;
#X connect 54 0 43 1;
#X connect 55 0 61 0;
#X connect 57 0 38 0;
#X connect 58 0 40 0;
#X connect 59 0 39 0;
#X connect 61 0 60 0;
#X connect 61 1 56 0;
#X connect 63 0 42 0;
#X connect 64 0 43 0;
#X connect 65 0 71 0;
#X connect 66 0 72 0;
#X connect 67 0 73 0;
#X connect 68 0 67 0;
#X connect 69 0 66 0;
#X connect 70 0 65 0;
#X connect 71 0 41 1;
#X connect 71 1 44 1;
#X connect 72 0 48 1;
#X connect 72 1 49 1;
#X connect 72 2 63 0;
#X connect 73 0 53 1;
#X connect 73 1 54 1;
#X connect 73 2 64 0;
#X connect 74 0 1 0;
#X connect 81 0 83 0;
#X connect 82 0 94 0;
#X connect 82 1 79 0;
#X connect 82 4 80 0;
#X connect 82 7 76 0;
#X connect 82 8 77 0;
#X connect 83 0 82 0;
#X connect 84 0 88 0;
#X connect 85 0 84 0;
#X connect 86 0 87 0;
#X connect 87 0 93 0;
#X connect 88 0 93 1;
#X connect 89 0 93 0;
#X connect 90 0 92 0;
#X connect 91 0 87 1;
#X connect 91 1 88 1;
#X connect 91 2 89 0;
#X connect 92 0 91 0;
#X connect 94 0 78 0;
#X restore 19 98 pd MIDI;
#N canvas 501 84 752 410 SEQ_GENERATOR 0;
#X obj 104 254 SECTION 0;
#X obj 174 254 SECTION 1;
#X obj 244 254 SECTION 2;
#X obj 314 254 SECTION 3;
#X floatatom 104 169 5 0 0 0 - - -;
#X msg 104 189 offset \$1;
#X floatatom 174 169 5 0 0 0 - - -;
#X msg 174 189 offset \$1;
#X floatatom 244 169 5 0 0 0 - - -;
#X msg 244 189 offset \$1;
#X floatatom 314 169 5 0 0 0 - - -;
#X msg 314 189 offset \$1;
#X msg 82 46 4;
#X obj 225 322 s \$0_trig_1;
#X obj 155 292 s \$0_trig_0;
#X obj 295 292 s \$0_trig_2;
#X obj 365 322 s \$0_trig_3;
#X obj 82 25 r \$0_l_bang_2;
#X text 451 28 "quasi-euclidean" rhythms;
#X text 52 3 initialize the snare \;;
#X obj 104 102 r \$0_from_g_offset_0;
#X obj 174 132 r \$0_from_g_offset_1;
#X obj 244 102 r \$0_from_g_offset_2;
#X obj 314 132 r \$0_from_g_offset_3;
#X obj 82 67 s \$0_to_g_offset_1;
#X msg 80 227 print;
#X msg 150 227 print;
#X msg 220 227 print;
#X msg 290 227 print;
#X msg 23 191 init;
#X obj 23 131 r \$0_init_patterns;
#X obj 23 161 t b b;
#X text 379 252 <<< 4 quadrants on LPs \;;
#X connect 0 1 14 0;
#X connect 1 1 13 0;
#X connect 2 1 15 0;
#X connect 3 1 16 0;
#X connect 4 0 5 0;
#X connect 5 0 0 0;
#X connect 6 0 7 0;
#X connect 7 0 1 0;
#X connect 8 0 9 0;
#X connect 9 0 2 0;
#X connect 10 0 11 0;
#X connect 11 0 3 0;
#X connect 12 0 24 0;
#X connect 17 0 12 0;
#X connect 20 0 4 0;
#X connect 21 0 6 0;
#X connect 22 0 8 0;
#X connect 23 0 10 0;
#X connect 25 0 0 0;
#X connect 26 0 1 0;
#X connect 27 0 2 0;
#X connect 28 0 3 0;
#X connect 29 0 0 0;
#X connect 29 0 2 0;
#X connect 29 0 1 0;
#X connect 29 0 3 0;
#X connect 30 0 31 0;
#X connect 31 0 12 0;
#X connect 31 1 29 0;
#X restore 19 59 pd SEQ_GENERATOR;
#N canvas 1 78 486 150 MISC 0;
#X text 32 25 This is needed to make the r_cycle objects accessible
even before placing the r_cycle folder in a place part of the path
search in Pd \;;
#X obj 34 87 declare -path ../;
#X restore 19 117 pd MISC;
#X text 158 11 Copyright 2019-2020 Focusrite Audio Engineering Limited.
;
#X text 189 133 http://www.apache.org/licenses/LICENSE-2.0;
#X text 159 41 Licensed under the Apache License \, Version 2 (the
"License") \; you may not use this file except in compliance with the
License.;
#X text 159 98 You may obtain a copy of the License at;
#X text 159 163 Unless required by applicable law or agreed to in writing
\, software distributed under the License is distributed on an "AS
IS" BASIS \, WITHOUT WARRANTIES OR CONDITIONS OF ANY KIND \, either
express or implied.;
#X text 159 219 See the License for the specific language governing
permissions and limitations under the License.;
#X restore 4 182 pd CORE;
#X floatatom 175 108 5 0 0 2 BPM #0_to_g_bpm #0_from_g_bpm;
#X floatatom 8 128 5 0 0 3 offset_1 #0_to_g_offset_0 #0_from_g_offset_0
;
#X floatatom 68 128 5 0 0 3 offset_2 #0_to_g_offset_1 #0_from_g_offset_1
;
#X floatatom 8 108 5 0 0 2 offset_3 #0_to_g_offset_2 #0_from_g_offset_2
;
#X floatatom 68 108 5 0 0 2 offset_4 #0_to_g_offset_3 #0_from_g_offset_3
;
#X obj 90 161 DEVICE_SELECT;
#X obj 21 244 bng 15 250 50 0 \$0_load_1 empty load_1 0 -8 0 10 -262144
-1 -1;
#X obj 71 244 bng 15 250 50 0 \$0_load_2 empty load_2 0 -8 0 10 -262144
-1 -1;
#X obj 121 244 bng 15 250 50 0 \$0_load_3 empty load_3 0 -8 0 10 -262144
-1 -1;
#X obj 171 244 bng 15 250 50 0 \$0_load_4 empty load_4 0 -8 0 10 -262144
-1 -1;
#X text 3 210 LOAD-SAMPLES----------------------;
#X text 5 264 USE BOTTOM 'ARROW/SCENE' BUTTON TO \; PLAY/STOP \;;
#X obj 7 24 vradio 15 1 0 4 \$0_from_g_device \$0_to_g_device empty
0 -8 0 10 -262144 -1 -1 3;
#X text 25 23 LP Pro MK1;
#X text 25 37 LP X;
#X text 25 53 LP Mini MK3;
#X text 25 69 LP_Pro_MK3;
