#N canvas 448 126 993 771 10;
#X declare -path r_cycle;
#X declare -path lib;
#X obj 600 125 DSP_TOGGLE;
#X obj 600 82 DEVICE_SELECT;
#X obj 21 35 tgl 15 0 empty empty empty 17 7 0 10 -262144 -1 -1 0 1
;
#X obj 44 25 cnv 15 90 25 empty empty TURN_ON_GUI 4 12 0 12 -258113
-66577 0;
#X obj 21 212 LP_GUI 0;
#X msg 186 69 device LP_X;
#X msg 186 29 device LP_Pro;
#X msg 186 89 device LPM_MK3;
#X msg 187 144 print_objects;
#X msg 187 164 print_args;
#X msg 187 184 print_methods;
#X text 279 69 select the device in use \;;
#X text 285 168 r_cycle methods \;;
#X text 18 606 This is [LP_GUI 0] \, the number 0 \; is its unique
identifier \;;
#X msg 186 49 device LP_Pro_MK3;
#X msg 89 113 reset;
#X msg 186 109 device LP2;
#X obj 600 30 declare -path r_cycle;
#X obj 600 6 declare -path lib;
#X obj 334 582 BUTTON 29 9 bang 0;
#X obj 334 543 BUTTON 19 24 bang 0;
#X obj 338 335 RADIO 61 8 74 70 0 0;
#X obj 641 352 flexsample, f 12;
#X obj 642 591 dac~;
#X msg 629 324 open;
#X obj 681 324 r pos;
#X obj 728 325 r speed;
#X obj 335 431 spigot;
#X floatatom 335 453 5 0 0 0 - - -;
#X obj 335 474 / 31;
#X obj 335 496 s pos;
#X obj 641 389 *~;
#X obj 674 389 *~;
#X obj 731 361 r level;
#X obj 512 431 moses 1;
#X obj 551 454 / 127;
#X obj 551 475 s level;
#N canvas 1 78 450 300 choosespeed 0;
#X obj 44 92 list store 1 2;
#X msg 125 68 list -2 -1 -0.5 -0.25 0.25 0.5 1 2;
#X msg 44 67 get \$1 1;
#X obj 44 43 inlet;
#X obj 44 113 s speed;
#X obj 124 43 loadbang;
#X obj 183 133 nbx 5 14 -1e+37 1e+37 0 0 empty empty empty 0 -8 0 10
-262144 -1 -1 0 256;
#X connect 0 0 4 0;
#X connect 0 0 6 0;
#X connect 1 0 0 1;
#X connect 2 0 0 0;
#X connect 3 0 2 0;
#X connect 5 0 1 0;
#X restore 375 364 pd choosespeed;
#X msg 738 298 1;
#X obj 337 213 KEYBOARD 6 0 0;
#X obj 337 239 - 36;
#X obj 376 240 s pitch;
#X obj 642 449 e_pitchshift;
#X obj 667 469 e_pitchshift;
#X msg 754 441 pitch \$1;
#X obj 753 414 r pitch;
#X obj 549 575 s speed;
#X msg 502 544 1;
#X msg 502 583 0;
#X obj 637 497 TAPE_DELAY;
#X obj 700 569 TAPE_DELAY;
#X msg 690 297 0;
#X obj 335 405 DRUM_PADS 0 0 32 52 1 0;
#X msg 338 310 select 4;
#X obj 583 177 COLORS;
#X obj 21 125 s \$0_init;
#X obj 338 283 r \$0_init;
#X obj 21 63 t f f;
#X msg 21 164 status \$1;
#X obj 21 84 sel 1;
#X obj 21 104 del 2500;
#X connect 2 0 57 0;
#X connect 5 0 4 0;
#X connect 6 0 4 0;
#X connect 7 0 4 0;
#X connect 8 0 4 0;
#X connect 9 0 4 0;
#X connect 10 0 4 0;
#X connect 14 0 4 0;
#X connect 15 0 4 0;
#X connect 16 0 4 0;
#X connect 19 0 48 0;
#X connect 20 0 47 0;
#X connect 21 1 37 0;
#X connect 22 0 31 0;
#X connect 22 1 32 0;
#X connect 24 0 22 0;
#X connect 25 0 22 2;
#X connect 26 0 22 3;
#X connect 27 0 28 0;
#X connect 28 0 29 0;
#X connect 29 0 30 0;
#X connect 31 0 42 0;
#X connect 32 0 43 0;
#X connect 33 0 32 1;
#X connect 33 0 31 1;
#X connect 34 1 35 0;
#X connect 35 0 36 0;
#X connect 38 0 22 3;
#X connect 39 0 40 0;
#X connect 40 0 41 0;
#X connect 42 0 49 0;
#X connect 43 0 50 0;
#X connect 44 0 43 1;
#X connect 44 0 42 1;
#X connect 45 0 44 0;
#X connect 47 0 46 0;
#X connect 48 0 46 0;
#X connect 49 0 23 0;
#X connect 50 0 23 1;
#X connect 51 0 22 2;
#X connect 52 0 27 0;
#X connect 52 1 27 1;
#X connect 52 1 34 0;
#X connect 53 0 21 0;
#X connect 56 0 53 0;
#X connect 57 0 59 0;
#X connect 57 1 58 0;
#X connect 58 0 4 0;
#X connect 59 0 60 0;
#X connect 60 0 55 0;
