#N canvas 372 102 760 650 10;
#X declare -path r_cycle;
#X declare -path ../;
#X obj 398 387 cnv 15 150 30 empty empty empty 20 12 0 14 -261682 -66577
0;
#X obj 396 266 cnv 15 120 30 empty empty empty 20 12 0 14 -204786 -66577
0;
#X obj 35 48 LP_GUI 0;
#X obj 378 62 CLOCK 0;
#X obj 418 273 PATTERN 0;
#X symbolatom 445 91 10 0 0 0 - - -;
#X msg 373 361 print_args;
#X obj 520 187 bng 25 250 50 0 \$0_clear empty clear_both_grid_and_pattern
0 -8 0 10 -261234 -1 -1;
#X obj 418 242 r \$0_to_pattern;
#N canvas 1 78 321 307 TRANSPORT_GUI 0;
#X obj 62 73 list trim;
#X obj 62 49 BUTTON 19 24 play 0;
#X obj 62 94 s \$0_to_transport;
#X obj 62 142 list trim;
#X obj 62 163 s \$0_to_transport;
#X obj 62 118 BUTTON 29 12 stop 0;
#X obj 62 212 list trim;
#X obj 62 233 s \$0_to_transport;
#X obj 62 188 BUTTON 39 13 continue 0;
#X connect 0 0 2 0;
#X connect 1 0 0 0;
#X connect 3 0 4 0;
#X connect 5 0 3 0;
#X connect 6 0 7 0;
#X connect 8 0 6 0;
#X restore 35 465 pd TRANSPORT_GUI;
#X text 519 273 actual Pd sequencer \;;
#X text 555 393 GUI (on LP) sequencer \;;
#N canvas 0 23 488 300 CLOCK_EXTRA 0;
#X msg 123 70 play;
#X msg 123 92 stop;
#X msg 123 113 continue;
#X floatatom 123 133 5 0 0 0 - - -;
#X msg 123 154 bpm \$1;
#X obj 123 29 tgl 15 0 empty empty empty 17 7 0 10 -262144 -1 -1 0
1;
#X msg 123 49 midi \$1;
#X obj 208 177 r \$0_to_transport;
#X obj 54 226 outlet;
#X text 203 156 from LP buttons - see [pd TRANSPORT_GUI] \;;
#X connect 0 0 8 0;
#X connect 1 0 8 0;
#X connect 2 0 8 0;
#X connect 3 0 4 0;
#X connect 4 0 8 0;
#X connect 5 0 6 0;
#X connect 6 0 8 0;
#X connect 7 0 8 0;
#X restore 378 39 pd CLOCK_EXTRA;
#N canvas 0 23 450 300 UTILS 0;
#X obj 39 114 DSP_TOGGLE;
#X obj 39 71 loadbang;
#X msg 39 92 1;
#X obj 149 32 declare -path r_cycle;
#X connect 1 0 2 0;
#X connect 2 0 0 0;
#X restore 35 526 pd UTILS;
#X text 350 480 [GRID] and [PATTERN] are decoupled. That means [PATTERN]
can run indipendently. This is useful in case user wants to manage
different views (ie using multiple [LP_GUI]).;
#X obj 418 334 r \$0_to_grid;
#X obj 378 187 tgl 25 0 \$0_from_g_patt_direction \$0_to_g_patt_direction
pattern::normal/reverse 0 -8 0 10 -262144 -1 -1 0 1;
#N canvas 19 115 578 319 MISC 0;
#X msg 106 159 direction \$1;
#X msg 260 44 get_size;
#X msg 449 154 clear;
#X obj 260 16 loadbang;
#X obj 449 132 r \$0_clear;
#X obj 33 88 r \$0_clear;
#X msg 33 110 clear;
#X floatatom 353 140 5 0 0 0 - - -;
#X msg 353 161 pointer \$1;
#X obj 353 116 r \$0_pointer;
#X obj 106 191 s \$0_to_pattern;
#X obj 353 204 s \$0_to_grid;
#X obj 106 130 r \$0_from_g_patt_direction;
#X text 324 37 ask [GRID] size to set \; [PATTERN] size accordingly
\;;
#X connect 0 0 10 0;
#X connect 1 0 11 0;
#X connect 2 0 11 0;
#X connect 3 0 1 0;
#X connect 4 0 2 0;
#X connect 5 0 6 0;
#X connect 6 0 10 0;
#X connect 7 0 8 0;
#X connect 8 0 11 0;
#X connect 9 0 7 0;
#X connect 12 0 0 0;
#X restore 35 485 pd MISC;
#N canvas 662 104 450 300 GRID_MISC 0;
#X obj 115 43 inlet;
#X obj 175 43 inlet;
#X obj 235 43 inlet;
#X msg 184 242 size \$1;
#X floatatom 184 222 5 0 0 0 - - -;
#X obj 149 147 print GRID_STATUS;
#X msg 115 122 step \$1 \$2;
#X obj 176 171 list prepend steps;
#X obj 176 193 list trim;
#X obj 115 265 s \$0_to_pattern;
#X obj 149 89 t a a;
#X connect 0 0 6 0;
#X connect 1 0 10 0;
#X connect 2 0 4 0;
#X connect 3 0 9 0;
#X connect 4 0 3 0;
#X connect 6 0 9 0;
#X connect 7 0 8 0;
#X connect 8 0 9 0;
#X connect 10 0 5 0;
#X connect 10 1 7 0;
#X restore 418 427 pd GRID_MISC;
#N canvas 1 78 380 254 PATTERN_MISC 0;
#X obj 34 45 inlet;
#X obj 124 45 inlet;
#X obj 214 45 inlet;
#X obj 151 154 b;
#X obj 124 131 sel 0;
#X obj 151 175 s \$0_trigger;
#X obj 34 131 s \$0_pointer;
#X obj 214 131 s \$0_raw_ticks_list;
#X connect 0 0 6 0;
#X connect 1 0 4 0;
#X connect 2 0 7 0;
#X connect 3 0 5 0;
#X connect 4 1 3 0;
#X restore 418 311 pd PATTERN_MISC;
#X obj 378 153 bng 15 250 50 0 \$0_from_g_load_sample \$0_to_g_load_sample
load_audio_sample 17 7 0 10 -204786 -1 -1;
#N canvas 1 78 450 300 SAMPLE+DAC 0;
#X obj 155 157 SIMPLE_PLAYER;
#X obj 155 205 dac~;
#X msg 249 130 amp 1;
#X obj 249 105 loadbang;
#X msg 93 97 load;
#X text 246 157 audio sample;
#X obj 155 116 r \$0_trigger;
#X obj 93 72 r \$0_from_g_load_sample;
#X connect 0 0 1 0;
#X connect 0 0 1 1;
#X connect 2 0 0 0;
#X connect 3 0 2 0;
#X connect 4 0 0 0;
#X connect 6 0 0 0;
#X connect 7 0 4 0;
#X restore 35 505 pd SAMPLE+DAC;
#X text 121 505 <<< sample triggered by [PATTERN] \;;
#X text 514 43 CLOCK/TRANSPORT \; --- \; 1 play (green) \; 2 stop (orange)
\; 3 continue (yellow) \;;
#X obj 418 394 GRID 41 32 26 0;
#X text 34 18 TURN ON DEVICE FIRST;
#N canvas 1 78 486 150 MISC 0;
#X text 32 25 This is needed to make the r_cycle objects accessible
even before placing the r_cycle folder in a place part of the path
search in Pd \;;
#X obj 34 87 declare -path ../;
#X restore 35 546 pd MISC;
#X text 33 603 Copyright 2019-2020 Focusrite Audio Engineering Limited.
;
#X text 64 725 http://www.apache.org/licenses/LICENSE-2.0;
#X text 34 633 Licensed under the Apache License \, Version 2 (the
"License") \; you may not use this file except in compliance with the
License.;
#X text 34 690 You may obtain a copy of the License at;
#X text 34 755 Unless required by applicable law or agreed to in writing
\, software distributed under the License is distributed on an "AS
IS" BASIS \, WITHOUT WARRANTIES OR CONDITIONS OF ANY KIND \, either
express or implied.;
#X text 34 811 See the License for the specific language governing
permissions and limitations under the License.;
#X connect 3 1 5 0;
#X connect 4 0 19 0;
#X connect 4 2 19 1;
#X connect 4 3 19 2;
#X connect 6 0 24 0;
#X connect 8 0 4 0;
#X connect 12 0 3 0;
#X connect 15 0 24 0;
#X connect 24 0 18 0;
#X connect 24 1 18 1;
#X connect 24 2 18 2;
