#N canvas 666 55 524 723 12;
#X declare -path r_cycle;
#X declare -path ../;
#X floatatom 171 551 5 0 0 0 row - -;
#X floatatom 189 571 5 0 0 0 column - -;
#X symbolatom 207 592 15 0 0 0 button - -;
#X floatatom 225 611 5 0 0 0 note - -;
#X floatatom 243 631 5 0 0 0 velocity - -;
#X floatatom 261 651 5 0 0 0 polytouch - -;
#X floatatom 280 672 5 0 0 0 aftertouch - -;
#X floatatom 298 693 5 0 0 0 cc_value - -;
#X floatatom 317 713 5 0 0 0 cc_number - -;
#X floatatom 301 651 5 0 0 1 note - -;
#X obj 261 550 unpack;
#X text 196 486 Launchpad Pro;
#X floatatom 187 968 5 0 0 0 row - -;
#X floatatom 205 988 5 0 0 0 column - -;
#X symbolatom 223 1009 15 0 0 0 button - -;
#X floatatom 242 1028 5 0 0 0 note - -;
#X floatatom 260 1048 5 0 0 0 velocity - -;
#X floatatom 278 1068 5 0 0 0 polytouch - -;
#X floatatom 297 1088 5 0 0 0 aftertouch - -;
#X floatatom 315 1108 5 0 0 0 cc_value - -;
#X floatatom 334 1140 5 0 0 0 cc_number - -;
#X floatatom 317 1068 5 0 0 1 note - -;
#X obj 277 967 unpack;
#X obj 187 936 FROM_LP_X 1 72, f 21;
#X text 217 902 Launchpad X;
#X obj 256 370 DEVICE_SELECT;
#X obj 227 870 TO_LP_X;
#X obj 227 825 tgl 15 0 empty empty empty 17 7 0 10 -262144 -1 -1 0
1;
#X msg 227 845 programmer_mode \$1;
#X text 167 823 >>>>>>>;
#N canvas 442 23 691 755 MIDI_to_LPP 0;
#X floatatom 15 386 5 0 0 1 Pad - -;
#X floatatom 32 409 5 0 0 1 Colour_(0-127) - -;
#X msg 64 682 column \$1;
#X floatatom 64 655 5 0 0 1 Column - -;
#X floatatom 26 570 5 0 0 1 Colour_(0-127) - -;
#X floatatom 65 714 5 0 0 1 Row - -;
#X msg 65 741 row \$1;
#X msg 12 823 clear;
#X msg 16 928 setall \$1;
#X floatatom 16 898 5 0 0 0 - - -;
#X text 68 821 <<< The surface of the LPP can be cleared by sending
a clear message to the third inlet., f 72;
#X text 99 926 <<< A colour value followed by a 'setall' message will
light all the pads on the LPP., f 67;
#X floatatom 60 1177 5 0 0 1 Pad - -;
#X floatatom 14 1029 5 0 0 1 Mode_(0-2) - -;
#X msg 13 1143 mode \$1;
#X msg 31 1059 symbol static;
#X msg 51 1087 symbol flash;
#X msg 65 1115 symbol pulse;
#X msg 107 1206 0;
#X msg 68 1206 24;
#X symbolatom 51 1439 20 0 0 0 - - -;
#X obj 118 1473 tgl 15 0 empty empty loop 17 7 0 10 -262144 -1 -1 0
1;
#X floatatom 118 1494 5 0 0 1 speed_(1-7) - -;
#X obj 51 1519 pack s 0 4;
#X msg 51 1545 text \$1 \$2 \$3;
#X msg 77 1580 text_stop;
#X obj 51 1409 bng 20 250 50 0 empty empty empty 17 7 0 10 -260097
-1 -1;
#X floatatom 31 1373 5 0 0 0 - - -;
#X text 141 1029 <<< Static \, flash and pulse modes are available
for each pad. First \, choose a mode..., f 62;
#X text 168 1206 <<< and set the colours.;
#X text 108 1323 Text can also be sent to the LPP;
#X text 165 1372 <<< First \, set the colour;
#X text 206 1439 <<< add some text;
#X msg 627 1780 end;
#X obj 15 490 int;
#X obj 13 14 TO_LPP;
#X obj 15 517 TO_LPP;
#X obj 13 765 TO_LPP;
#X obj 12 855 TO_LPP;
#X obj 16 961 TO_LPP;
#X obj 11 1264 TO_LPP;
#X obj 12 1606 TO_LPP;
#X text 71 277 A guide to the Programmer Mode pad layout can be found
on page 17 & 18 and a colour guide can be found on page 6, f 76;
#X text 12 332 Below are some basic examples of what can be done with
the TO_LPP object., f 75;
#X text 184 386 <<< To light up pad \, first enter a pad value followed
by a colour value. In tradition with Pd objects \, the left-most inlet
is the hot inlet. The additional objects 'b' and 'int' cause a messsage
top be sent to the LPP each time a colour value is changed.;
#X text 172 1176 <<< then choose a pad;
#X text 168 1240 --- Flash and pulse modes require two colour values.
More information on this behaviour can be found on page 21 of the Programmers
Reference Guide.---, f 63;
#X text 169 679 <<< Whole columns and rows of pads can be lit by sending
a column or row message to the third inlet., f 63;
#X text 191 1580 <<< send a 'text_stop' message to stop the text.;
#X text 240 1493 <<< apply speed and loop settings then click the orange
bang above to display the text. If no settings are applied here \,
text will scroll at a speed of 4 and not loop \, this is set by the
'pack' object.;
#X text 70 14 <<< TO_LPP handles sending MIDI back to the Launchpad
Pro. Before exploring the functions of this object it's a good idea
to understand the layout of the LPP \, this information is available
in the Launchpad Pro Programmers Reference Guide., f 76;
#X obj 26 594 t b f;
#N canvas 250 167 450 300 SELECTOR 0;
#X obj 122 42 inlet;
#X obj 122 106 t a a;
#X obj 122 234 outlet;
#X obj 192 180 spigot;
#X obj 192 234 outlet;
#X obj 232 42 inlet;
#X obj 232 66 tgl 15 0 empty empty empty 17 7 0 10 -262144 -1 -1 0
1;
#X obj 161 150 == 0;
#X obj 231 150 == 1;
#X obj 122 180 spigot 1;
#X connect 0 0 1 0;
#X connect 1 0 9 0;
#X connect 1 1 3 0;
#X connect 3 0 4 0;
#X connect 5 0 6 0;
#X connect 6 0 7 0;
#X connect 6 0 8 0;
#X connect 7 0 9 1;
#X connect 8 0 3 1;
#X connect 9 0 2 0;
#X restore 26 621 pd SELECTOR;
#X obj 123 609 vradio 15 1 0 2 empty empty empty 0 -8 0 10 -262144
-1 -1 1;
#X text 141 607 column;
#X text 141 621 row;
#X obj 68 1230 t b f;
#X obj 24 1215 int;
#X text 10 1664 This covers the basic functionality of the 'TO_LPP'
object and the Novation InControl protocol \, further examples and
tutoruals can be found in the r_cycle > Pd folder. A good starting
point if the the 'T_LP_GUI' \, this object is one of the most important
objects in the r_cycle collection and allows custom r_cycle widgets
to be added quickly added to the surface of a Launchpad for a range
of hands-on control over a patch. All of the information from this
tutorial can be found in 'LPPro_help.pd'., f 92;
#X obj 32 432 t b f;
#X obj 112 245 pdcontrol;
#X msg 111 101 browse https://customer.novationmusic.com/sites/customer/files/novation/downloads/10598/launchpad-pro-programmers-reference-guide_0.pdf
;
#X msg 132 171 browse https://customer.novationmusic.com/sites/customer/files/novation/downloads/10598/launchpad-pro-programmers-reference-guide0v07jajp.pdf
;
#X text 51 121 English;
#X text 69 192 日本語;
#X connect 0 0 34 0;
#X connect 1 0 59 0;
#X connect 2 0 37 0;
#X connect 3 0 2 0;
#X connect 4 0 51 0;
#X connect 5 0 6 0;
#X connect 6 0 37 0;
#X connect 7 0 38 0;
#X connect 8 0 39 0;
#X connect 9 0 8 0;
#X connect 12 0 57 0;
#X connect 13 0 14 0;
#X connect 14 0 40 0;
#X connect 15 0 14 0;
#X connect 16 0 14 0;
#X connect 17 0 14 0;
#X connect 18 0 56 0;
#X connect 19 0 56 0;
#X connect 20 0 23 0;
#X connect 21 0 23 1;
#X connect 22 0 23 2;
#X connect 23 0 24 0;
#X connect 24 0 41 0;
#X connect 25 0 41 0;
#X connect 26 0 20 0;
#X connect 27 0 41 1;
#X connect 34 0 36 0;
#X connect 51 0 52 0;
#X connect 51 1 37 1;
#X connect 52 0 3 0;
#X connect 52 1 5 0;
#X connect 53 0 52 1;
#X connect 56 0 57 0;
#X connect 56 1 40 1;
#X connect 57 0 40 0;
#X connect 59 0 34 0;
#X connect 59 1 36 1;
#X connect 61 0 60 0;
#X connect 62 0 60 0;
#X restore 46 1818 pd MIDI_to_LPP;
#X msg 477 1861 end;
#X obj 171 519 FROM_LPP 1 72, f 21;
#X text 39 167 This should be the first object in any r_cycle patch.
;
#X text 43 762 LPX users - select 'Launchpad X LPX MIDI Out' as an
Input Device and 'Launchpad X LPX MIDI IN' as an Output Device and
the set the LPX to Programmer mode using the toggle below.;
#X text 38 309 tip:Pd doesn't like hot-plugging \, make sure the hardware
is connected before opening Pd. If not \, save the patch \, close Pd
\, connect your LP and reopen Pd. Audio and MIDI preferences can be
configured by selecting to File > Preferences or clicking here >;
#X text 45 1730 If you're new to Pd or programming for the Launchpad
series \, guides on sending MIDI data to a LP can be found in the patches
below.;
#N canvas 587 23 688 755 MIDI_to_LP_X 0;
#X floatatom 15 346 5 0 0 1 Pad - -;
#X floatatom 39 369 5 0 0 1 Colour_(0-127) - -;
#X msg 64 632 column \$1;
#X floatatom 64 605 5 0 0 1 Column - -;
#X floatatom 26 520 5 0 0 1 Colour_(0-127) - -;
#X obj 26 544 t b f;
#X floatatom 65 664 5 0 0 1 Row - -;
#X msg 65 691 row \$1;
#X msg 12 763 clear;
#X msg 16 888 setall \$1;
#X floatatom 16 858 5 0 0 0 - - -;
#X floatatom 60 1137 5 0 0 1 Pad - -;
#X floatatom 12 989 5 0 0 1 Mode_(0-2) - -;
#X msg 11 1103 mode \$1;
#X msg 29 1019 symbol static;
#X msg 49 1047 symbol flash;
#X msg 63 1075 symbol pulse;
#X msg 107 1166 0;
#X msg 68 1166 24;
#X symbolatom 51 1399 20 0 0 0 - - -;
#X obj 118 1433 tgl 15 0 empty empty loop 17 7 0 10 -262144 -1 -1 0
1;
#X floatatom 118 1454 5 0 0 1 speed_(1-7) - -;
#X obj 51 1479 pack s 0 4;
#X msg 51 1505 text \$1 \$2 \$3;
#X msg 77 1540 text_stop;
#X obj 51 1369 bng 20 250 50 0 empty empty empty 17 7 0 10 -260097
-1 -1;
#X floatatom 12 1333 5 0 0 0 - - -;
#X text 141 989 <<< Static \, flash and pulse modes are available for
each pad. First \, choose a mode..., f 62;
#X text 168 1166 <<< and set the colours.;
#X text 95 1332 <<< First \, set the colour;
#X text 206 1399 <<< add some text;
#X msg 627 1740 end;
#X obj 15 430 int;
#X text 12 292 Below are some basic examples of what can be done with
the TO_LPP object., f 75;
#X text 172 1136 <<< then choose a pad;
#X text 168 1200 --- Flash and pulse modes require two colour values.
More information on this behaviour can be found on page 21 of the Programmers
Reference Guide.---, f 63;
#X text 169 619 <<< Whole columns and rows of pads can be lit by sending
a column or row message to the third inlet., f 63;
#X text 191 1540 <<< send a 'text_stop' message to stop the text.;
#X text 240 1453 <<< apply speed and loop settings then click the orange
bang above to display the text. If no settings are applied here \,
text will scroll at a speed of 4 and not loop \, this is set by the
'pack' object.;
#X obj 13 14 TO_LP_X;
#X text 70 14 <<< TO_LP_X handles sending MIDI back to the Launchpad
X. Before exploring the functions of this object it's a good idea to
understand the layout of the LPP \, this information is available in
the Launchpad X Programmers Reference Guide., f 76;
#X obj 15 457 TO_LP_X;
#X text 184 346 <<< To light up pad \, first enter a pad value followed
by a colour value. In tradition with Pd objects \, the left-most inlet
is the hot inlet. The additional objects 'b' and 'int' cause a messsage
top be sent to the LPX each time a colour value is changed.;
#X obj 13 715 TO_LP_X;
#X obj 12 795 TO_LP_X;
#X text 82 761 <<< The surface of the LPX can be cleared by sending
a clear message to the third inlet., f 72;
#X text 99 886 <<< A colour value followed by a 'setall' message will
light all the pads on the LPX., f 67;
#X obj 16 921 TO_LP_X;
#X obj 11 1224 TO_LP_X;
#X text 108 1283 Text can also be sent to the LPX;
#X obj 12 1566 TO_LP_X;
#X obj 39 392 t b f;
#X obj 31 1190 int;
#X obj 68 1200 t b f;
#N canvas 250 167 450 300 SELECTOR 0;
#X obj 122 42 inlet;
#X obj 122 106 t a a;
#X obj 122 234 outlet;
#X obj 192 180 spigot;
#X obj 192 234 outlet;
#X obj 232 42 inlet;
#X obj 232 66 tgl 15 0 empty empty empty 17 7 0 10 -262144 -1 -1 0
1;
#X obj 161 150 == 0;
#X obj 231 150 == 1;
#X obj 122 180 spigot 1;
#X connect 0 0 1 0;
#X connect 1 0 9 0;
#X connect 1 1 3 0;
#X connect 3 0 4 0;
#X connect 5 0 6 0;
#X connect 6 0 7 0;
#X connect 6 0 8 0;
#X connect 7 0 9 1;
#X connect 8 0 3 1;
#X connect 9 0 2 0;
#X restore 26 581 pd SELECTOR;
#X obj 123 569 vradio 15 1 0 2 empty empty empty 0 -8 0 10 -262144
-1 -1 1;
#X text 141 567 column;
#X text 141 581 row;
#X text 10 1624 This covers the basic functionality of the 'TO_LP_X'
object and the Novation InControl protocol \, further examples and
tutoruals can be found in the r_cycle > Pd folder. A good starting
point if the the 'T_LP_GUI' \, this object is one of the most important
objects in the r_cycle collection and allows custom r_cycle widgets
to be added quickly added to the surface of a Launchpad for a range
of hands-on control over a patch. All of the information from this
tutorial can be found in 'LP_X_help.pd'., f 92;
#X msg 87 130 browse https://fael-downloads-prod.focusrite.com/customer/prod/s3fs-public/downloads/Launchpad%20X%20-%20Programmers%20Reference%20Manual.pdf
;
#X obj 87 196 pdcontrol;
#X text 34 153 English;
#X connect 0 0 32 0;
#X connect 1 0 51 0;
#X connect 2 0 43 0;
#X connect 3 0 2 0;
#X connect 4 0 5 0;
#X connect 5 0 54 0;
#X connect 5 1 43 1;
#X connect 6 0 7 0;
#X connect 7 0 43 0;
#X connect 8 0 44 0;
#X connect 9 0 47 0;
#X connect 10 0 9 0;
#X connect 11 0 52 0;
#X connect 12 0 13 0;
#X connect 13 0 48 0;
#X connect 14 0 13 0;
#X connect 15 0 13 0;
#X connect 16 0 13 0;
#X connect 17 0 53 0;
#X connect 18 0 53 0;
#X connect 19 0 22 0;
#X connect 20 0 22 1;
#X connect 21 0 22 2;
#X connect 22 0 23 0;
#X connect 23 0 50 0;
#X connect 24 0 50 0;
#X connect 25 0 19 0;
#X connect 26 0 50 1;
#X connect 32 0 41 0;
#X connect 51 0 32 0;
#X connect 51 1 41 1;
#X connect 52 0 48 0;
#X connect 53 0 52 0;
#X connect 53 1 48 1;
#X connect 54 0 3 0;
#X connect 54 1 6 0;
#X connect 55 0 54 1;
#X connect 59 0 60 0;
#X restore 200 1818 pd MIDI_to_LP_X;
#X text 39 431 LPP users - select 'Launchpad Pro Standalone Port' in
the MIDI preferences and set the LPP to Programmer Mode. MIDI information
from the hardware can be seen below.;
#X obj 227 1275 tgl 15 0 empty empty empty 17 7 0 10 -262144 -1 -1
0 1;
#X msg 227 1295 programmer_mode \$1;
#X text 167 1273 >>>>>>>;
#X obj 227 1320 TO_LPM_MK3;
#X text 43 1191 LP Mini users - select 'Launchpad Mini MK3 LPMiniMK3
MIDI Out' as an Input Device and 'Launchpad Mini MK3 LPMiniMK3 MIDI
IN' as an Output Device and the set the LP Mini to Programmer mode
using the toggle below.;
#X text 197 1352 Launchpad Mini;
#X floatatom 180 1419 5 0 0 0 row - -;
#X floatatom 204 1439 5 0 0 0 column - -;
#X symbolatom 228 1460 15 0 0 0 button - -;
#X floatatom 252 1479 5 0 0 0 note - -;
#X floatatom 277 1499 5 0 0 0 velocity - -;
#X floatatom 301 1519 5 0 0 0 cc_value - -;
#X floatatom 326 1539 5 0 0 0 cc_number - -;
#X obj 180 1387 FROM_LPM_MK3 1 72, f 21;
#N canvas 543 23 688 755 MIDI_to_LPM 0;
#X floatatom 15 346 5 0 0 1 Pad - -;
#X floatatom 49 369 5 0 0 1 Colour_(0-127) - -;
#X msg 88 632 column \$1;
#X floatatom 88 605 5 0 0 1 Column - -;
#X floatatom 50 520 5 0 0 1 Colour_(0-127) - -;
#X obj 50 544 t b f;
#X floatatom 89 664 5 0 0 1 Row - -;
#X msg 89 691 row \$1;
#X msg 12 763 clear;
#X msg 16 890 setall \$1;
#X floatatom 16 860 5 0 0 0 - - -;
#X floatatom 70 1137 5 0 0 1 Pad - -;
#X floatatom 14 989 5 0 0 1 Mode_(0-2) - -;
#X msg 13 1103 mode \$1;
#X msg 31 1019 symbol static;
#X msg 51 1047 symbol flash;
#X msg 65 1075 symbol pulse;
#X msg 117 1166 0;
#X msg 78 1166 24;
#X symbolatom 51 1399 20 0 0 0 - - -;
#X obj 118 1433 tgl 15 0 empty empty loop 17 7 0 10 -262144 -1 -1 0
1;
#X floatatom 118 1454 5 0 0 1 speed_(1-7) - -;
#X obj 51 1479 pack s 0 4;
#X msg 51 1505 text \$1 \$2 \$3;
#X msg 77 1540 text_stop;
#X obj 51 1369 bng 20 250 50 0 empty empty empty 17 7 0 10 -260097
-1 -1;
#X floatatom 13 1333 5 0 0 0 - - -;
#X text 141 989 <<< Static \, flash and pulse modes are available for
each pad. First \, choose a mode..., f 62;
#X text 158 1166 <<< and set the colours.;
#X text 165 1332 <<< First \, set the colour;
#X text 206 1399 <<< add some text;
#X msg 627 1740 end;
#X obj 15 430 int;
#X text 162 1136 <<< then choose a pad;
#X text 158 1200 --- Flash and pulse modes require two colour values.
More information on this behaviour can be found on page 21 of the Programmers
Reference Guide.---, f 63;
#X text 193 619 <<< Whole columns and rows of pads can be lit by sending
a column or row message to the third inlet., f 63;
#X text 191 1540 <<< send a 'text_stop' message to stop the text.;
#X text 240 1453 <<< apply speed and loop settings then click the orange
bang above to display the text. If no settings are applied here \,
text will scroll at a speed of 4 and not loop \, this is set by the
'pack' object.;
#X text 204 346 <<< To light up pad \, first enter a pad value followed
by a colour value. In tradition with Pd objects \, the left-most inlet
is the hot inlet. The additional objects 'b' and 'int' cause a messsage
top be sent to the LPX each time a colour value is changed.;
#X text 102 761 <<< The surface of the LPX can be cleared by sending
a clear message to the third inlet., f 72;
#X text 105 886 <<< A colour value followed by a 'setall' message will
light all the pads on the LPX., f 67;
#X obj 49 392 t b f;
#X obj 21 1190 int;
#X obj 78 1200 t b f;
#N canvas 250 167 450 300 SELECTOR 0;
#X obj 122 42 inlet;
#X obj 122 106 t a a;
#X obj 122 234 outlet;
#X obj 192 180 spigot;
#X obj 192 234 outlet;
#X obj 232 42 inlet;
#X obj 232 66 tgl 15 0 empty empty empty 17 7 0 10 -262144 -1 -1 0
1;
#X obj 161 150 == 0;
#X obj 231 150 == 1;
#X obj 122 180 spigot 1;
#X connect 0 0 1 0;
#X connect 1 0 9 0;
#X connect 1 1 3 0;
#X connect 3 0 4 0;
#X connect 5 0 6 0;
#X connect 6 0 7 0;
#X connect 6 0 8 0;
#X connect 7 0 9 1;
#X connect 8 0 3 1;
#X connect 9 0 2 0;
#X restore 50 581 pd SELECTOR;
#X obj 147 569 vradio 15 1 0 2 empty empty empty 0 -8 0 10 -262144
-1 -1 1;
#X text 165 567 column;
#X text 165 581 row;
#X obj 13 14 TO_LPM_MK3;
#X text 90 14 <<< TO_LPM_MK3 handles sending MIDI back to the Launchpad
Mini MK3. Before exploring the functions of this object it's a good
idea to understand the layout of the LPM \, this information is available
in the Launchpad Mini Programmers Reference Guide., f 76;
#X text 12 292 Below are some basic examples of what can be done with
the TO_LPM_MK3 object., f 75;
#X obj 15 457 TO_LPM_MK3;
#X obj 14 716 TO_LPM_MK3;
#X obj 12 795 TO_LPM_MK3;
#X obj 16 921 TO_LPM_MK3;
#X obj 11 1234 TO_LPM_MK3;
#X text 108 1283 Text can also be sent to the LPM;
#X obj 12 1566 TO_LPM_MK3;
#X text 10 1624 This covers the basic functionality of the 'TO_LPM_MK3'
object and the Novation InControl protocol \, further examples and
tutoruals can be found in the r_cycle > Pd folder. A good starting
point if the the 'T_LP_GUI' \, this object is one of the most important
objects in the r_cycle collection and allows custom r_cycle widgets
to be added quickly added to the surface of a Launchpad for a range
of hands-on control over a patch. All of the information from this
tutorial can be found in 'LPM_MK3-help.pd'., f 92;
#X msg 92 117 browse https://fael-downloads-prod.focusrite.com/customer/prod/s3fs-public/downloads/Launchpad%20Mini%20-%20Programmers%20Reference%20Manual.pdf
;
#X obj 92 193 pdcontrol;
#X text 39 138 English;
#X connect 0 0 32 0;
#X connect 1 0 41 0;
#X connect 2 0 52 0;
#X connect 3 0 2 0;
#X connect 4 0 5 0;
#X connect 5 0 44 0;
#X connect 5 1 52 1;
#X connect 6 0 7 0;
#X connect 7 0 52 0;
#X connect 8 0 53 0;
#X connect 9 0 54 0;
#X connect 10 0 9 0;
#X connect 11 0 42 0;
#X connect 12 0 13 0;
#X connect 13 0 55 0;
#X connect 14 0 13 0;
#X connect 15 0 13 0;
#X connect 16 0 13 0;
#X connect 17 0 43 0;
#X connect 18 0 43 0;
#X connect 19 0 22 0;
#X connect 20 0 22 1;
#X connect 21 0 22 2;
#X connect 22 0 23 0;
#X connect 23 0 57 0;
#X connect 24 0 57 0;
#X connect 25 0 19 0;
#X connect 26 0 57 1;
#X connect 32 0 51 0;
#X connect 41 0 32 0;
#X connect 41 1 51 1;
#X connect 42 0 55 0;
#X connect 43 0 42 0;
#X connect 43 1 55 1;
#X connect 44 0 3 0;
#X connect 44 1 6 0;
#X connect 45 0 44 1;
#X connect 59 0 60 0;
#X restore 361 1818 pd MIDI_to_LPM;
#X text 40 194 The r_cycle library was created using the Launchpad
API (aka Novation InControl protocol) \, this allows for easy back
& forth communication with hardware and subsequently a greater level
of customisation. For example \, the 'FROM_LPP' \, 'FROM_LP_X' and
'FROM_LPM_MK3' objects expose all of the MIDI information being sent
from the specific device that can used to control anything in Pd.;
#X text 45 1590 This intercation between objects and hardware is at
the core of r_cycle \, if you're already familar with Pd and programming
for a Launchpad this infromation along with further information on
sending MIDI to hardware can be found in r_cycle/Pd/LPPro-help.pd -
LP_X-help.pd - LPM_MK3-help.pd. Following this \, a series of tutorials
and examples \, labelled "T_" & "E_" respectively \, are available
in the r_cycle/Pd folder.;
#X obj 41 136 declare -path r_cycle;
#X text 38 6 r_cycle is based around a library of custom Pd objects
\, when making patches with Pd and r_cycle the first thing to do is
to place the r_cycle folder in Pd/extrnals or in a folder that is listed
as part of the path search in Pd (to check in Pd go to: "Preferences->Path")
\; This can be done using the 'declare' object \; Then in the patch
where one or more r_cycle objects are used the library must be "imported"
using [declare].;
#N canvas 1 78 486 150 MISC 0;
#X text 32 25 This is needed to make the r_cycle objects accessible
even before placing the r_cycle folder in a place part of the path
search in Pd \;;
#X obj 34 87 declare -path ../;
#X restore 46 1845 pd MISC;
#X text 45 1938 Copyright 2019-2020 Focusrite Audio Engineering Limited.
;
#X text 76 2060 http://www.apache.org/licenses/LICENSE-2.0;
#X text 46 1968 Licensed under the Apache License \, Version 2 (the
"License") \; you may not use this file except in compliance with the
License.;
#X text 46 2025 You may obtain a copy of the License at;
#X text 46 2090 Unless required by applicable law or agreed to in writing
\, software distributed under the License is distributed on an "AS
IS" BASIS \, WITHOUT WARRANTIES OR CONDITIONS OF ANY KIND \, either
express or implied.;
#X text 46 2146 See the License for the specific language governing
permissions and limitations under the License.;
#X connect 10 0 5 0;
#X connect 10 1 9 0;
#X connect 22 0 17 0;
#X connect 22 1 21 0;
#X connect 23 0 12 0;
#X connect 23 1 13 0;
#X connect 23 2 14 0;
#X connect 23 3 15 0;
#X connect 23 4 16 0;
#X connect 23 5 22 0;
#X connect 23 6 18 0;
#X connect 23 7 19 0;
#X connect 23 8 20 0;
#X connect 27 0 28 0;
#X connect 28 0 26 0;
#X connect 32 0 0 0;
#X connect 32 1 1 0;
#X connect 32 2 2 0;
#X connect 32 3 3 0;
#X connect 32 4 4 0;
#X connect 32 5 10 0;
#X connect 32 6 6 0;
#X connect 32 7 7 0;
#X connect 32 8 8 0;
#X connect 39 0 40 0;
#X connect 40 0 42 0;
#X connect 52 0 45 0;
#X connect 52 1 46 0;
#X connect 52 2 47 0;
#X connect 52 3 48 0;
#X connect 52 4 49 0;
#X connect 52 5 50 0;
#X connect 52 6 51 0;
