#N canvas 0 23 1280 755 12;
#X declare -path r_cycle;
#X declare -path ../;
#X obj 9 43 DEVICE_SELECT;
#X obj 159 44 DSP_TOGGLE;
#X obj 15 210 LP_GUI 1;
#X obj 15 93 tgl 15 0 empty empty empty 17 7 0 10 -262144 -1 -1 0 1
;
#X msg 15 113 status \$1;
#X msg 152 124 device LP_X;
#X msg 160 146 device LP_Pro;
#X text 563 7 GRID Basic Tutorial;
#X obj 352 424 unpack;
#X floatatom 352 453 5 0 0 0 - - -;
#X floatatom 391 453 5 0 0 0 - - -;
#X floatatom 503 511 5 0 0 0 - - -;
#X msg 376 304 get_size;
#X msg 390 333 clear;
#X msg 405 358 dump;
#X obj 408 483 print GRID_STATUS;
#N canvas 489 220 506 460 osc_bank 0;
#X obj 18 25 r \$0_osc_matrix;
#N canvas 551 108 150 308 osc1 0;
#X obj 39 33 sel 0 1;
#X obj 8 170 osc~ 164.81;
#X obj 19 212 *~;
#X msg 66 67 1 1000;
#X msg 39 98 0 1000;
#X obj 38 139 line~;
#X obj 39 8 inlet;
#X obj 19 242 outlet~;
#X connect 0 0 4 0;
#X connect 0 1 3 0;
#X connect 1 0 2 0;
#X connect 2 0 7 0;
#X connect 3 0 5 0;
#X connect 4 0 5 0;
#X connect 5 0 2 1;
#X connect 6 0 0 0;
#X restore 18 90 pd osc1;
#N canvas 551 108 150 308 osc2 0;
#X obj 39 33 sel 0 1;
#X obj 19 212 *~;
#X msg 66 67 1 1000;
#X msg 39 98 0 1000;
#X obj 38 139 line~;
#X obj 39 8 inlet;
#X obj 19 242 outlet~;
#X obj 8 170 osc~ 184.997;
#X connect 0 0 3 0;
#X connect 0 1 2 0;
#X connect 1 0 6 0;
#X connect 2 0 4 0;
#X connect 3 0 4 0;
#X connect 4 0 1 1;
#X connect 5 0 0 0;
#X connect 7 0 1 0;
#X restore 39 116 pd osc2;
#N canvas 551 108 150 308 osc3 0;
#X obj 39 33 sel 0 1;
#X obj 19 212 *~;
#X msg 66 67 1 1000;
#X msg 39 98 0 1000;
#X obj 38 139 line~;
#X obj 39 8 inlet;
#X obj 19 242 outlet~;
#X obj 8 170 osc~ 195.997;
#X connect 0 0 3 0;
#X connect 0 1 2 0;
#X connect 1 0 6 0;
#X connect 2 0 4 0;
#X connect 3 0 4 0;
#X connect 4 0 1 1;
#X connect 5 0 0 0;
#X connect 7 0 1 0;
#X restore 62 143 pd osc3;
#N canvas 551 108 150 308 osc4 0;
#X obj 39 33 sel 0 1;
#X obj 19 212 *~;
#X msg 66 67 1 1000;
#X msg 39 98 0 1000;
#X obj 38 139 line~;
#X obj 39 8 inlet;
#X obj 19 242 outlet~;
#X obj 8 170 osc~ 220;
#X connect 0 0 3 0;
#X connect 0 1 2 0;
#X connect 1 0 6 0;
#X connect 2 0 4 0;
#X connect 3 0 4 0;
#X connect 4 0 1 1;
#X connect 5 0 0 0;
#X connect 7 0 1 0;
#X restore 85 169 pd osc4;
#N canvas 551 108 150 308 osc5 0;
#X obj 39 33 sel 0 1;
#X obj 19 212 *~;
#X msg 66 67 1 1000;
#X msg 39 98 0 1000;
#X obj 38 139 line~;
#X obj 39 8 inlet;
#X obj 19 242 outlet~;
#X obj 7 170 osc~ 246.941;
#X connect 0 0 3 0;
#X connect 0 1 2 0;
#X connect 1 0 6 0;
#X connect 2 0 4 0;
#X connect 3 0 4 0;
#X connect 4 0 1 1;
#X connect 5 0 0 0;
#X connect 7 0 1 0;
#X restore 109 89 pd osc5;
#N canvas 551 108 150 308 osc6 0;
#X obj 39 33 sel 0 1;
#X obj 19 212 *~;
#X msg 66 67 1 1000;
#X msg 39 98 0 1000;
#X obj 38 139 line~;
#X obj 39 8 inlet;
#X obj 19 242 outlet~;
#X obj 8 170 osc~ 261.625;
#X connect 0 0 3 0;
#X connect 0 1 2 0;
#X connect 1 0 6 0;
#X connect 2 0 4 0;
#X connect 3 0 4 0;
#X connect 4 0 1 1;
#X connect 5 0 0 0;
#X connect 7 0 1 0;
#X restore 131 116 pd osc6;
#X obj 18 431 outlet~;
#X obj 161 187 r \$0_osc_matrix2;
#X obj 18 57 route 0 1 2 3 4 5, f 20;
#X obj 161 217 route 0 1 2 3 4 5, f 20;
#N canvas 551 108 150 308 osc7 0;
#X obj 39 33 sel 0 1;
#X obj 19 212 *~;
#X msg 66 67 1 1000;
#X msg 39 98 0 1000;
#X obj 38 139 line~;
#X obj 39 8 inlet;
#X obj 19 242 outlet~;
#X obj 8 170 osc~ 329.627;
#X connect 0 0 3 0;
#X connect 0 1 2 0;
#X connect 1 0 6 0;
#X connect 2 0 4 0;
#X connect 3 0 4 0;
#X connect 4 0 1 1;
#X connect 5 0 0 0;
#X connect 7 0 1 0;
#X restore 161 245 pd osc7;
#N canvas 551 108 150 308 osc8 0;
#X obj 39 33 sel 0 1;
#X obj 19 212 *~;
#X msg 66 67 1 1000;
#X msg 39 98 0 1000;
#X obj 38 139 line~;
#X obj 39 8 inlet;
#X obj 19 242 outlet~;
#X obj 8 170 osc~ 369.994;
#X connect 0 0 3 0;
#X connect 0 1 2 0;
#X connect 1 0 6 0;
#X connect 2 0 4 0;
#X connect 3 0 4 0;
#X connect 4 0 1 1;
#X connect 5 0 0 0;
#X connect 7 0 1 0;
#X restore 183 272 pd osc8;
#N canvas 418 107 150 308 osc9 0;
#X obj 39 33 sel 0 1;
#X obj 19 212 *~;
#X msg 66 67 1 1000;
#X msg 39 98 0 1000;
#X obj 38 139 line~;
#X obj 39 8 inlet;
#X obj 19 242 outlet~;
#X obj 8 170 osc~ 391.995;
#X connect 0 0 3 0;
#X connect 0 1 2 0;
#X connect 1 0 6 0;
#X connect 2 0 4 0;
#X connect 3 0 4 0;
#X connect 4 0 1 1;
#X connect 5 0 0 0;
#X connect 7 0 1 0;
#X restore 206 301 pd osc9;
#N canvas 551 108 150 308 osc10 0;
#X obj 39 33 sel 0 1;
#X obj 19 212 *~;
#X msg 66 67 1 1000;
#X msg 39 98 0 1000;
#X obj 38 139 line~;
#X obj 39 8 inlet;
#X obj 19 242 outlet~;
#X obj 8 170 osc~ 440;
#X connect 0 0 3 0;
#X connect 0 1 2 0;
#X connect 1 0 6 0;
#X connect 2 0 4 0;
#X connect 3 0 4 0;
#X connect 4 0 1 1;
#X connect 5 0 0 0;
#X connect 7 0 1 0;
#X restore 228 327 pd osc10;
#N canvas 551 108 150 308 osc11 0;
#X obj 39 33 sel 0 1;
#X obj 19 212 *~;
#X msg 66 67 1 1000;
#X msg 39 98 0 1000;
#X obj 38 139 line~;
#X obj 39 8 inlet;
#X obj 19 242 outlet~;
#X obj 8 170 osc~ 493.883;
#X connect 0 0 3 0;
#X connect 0 1 2 0;
#X connect 1 0 6 0;
#X connect 2 0 4 0;
#X connect 3 0 4 0;
#X connect 4 0 1 1;
#X connect 5 0 0 0;
#X connect 7 0 1 0;
#X restore 252 245 pd osc11;
#N canvas 551 108 150 308 osc12 0;
#X obj 39 33 sel 0 1;
#X obj 19 212 *~;
#X msg 66 67 1 1000;
#X msg 39 98 0 1000;
#X obj 38 139 line~;
#X obj 39 8 inlet;
#X obj 19 242 outlet~;
#X obj 8 170 osc~ 523.251;
#X connect 0 0 3 0;
#X connect 0 1 2 0;
#X connect 1 0 6 0;
#X connect 2 0 4 0;
#X connect 3 0 4 0;
#X connect 4 0 1 1;
#X connect 5 0 0 0;
#X connect 7 0 1 0;
#X restore 275 270 pd osc12;
#X text 173 57 <<< Lower grid pad statuses;
#X text 286 187 <<< Upper grid pad statuses;
#X connect 0 0 9 0;
#X connect 1 0 7 0;
#X connect 2 0 7 0;
#X connect 3 0 7 0;
#X connect 4 0 7 0;
#X connect 5 0 7 0;
#X connect 6 0 7 0;
#X connect 8 0 10 0;
#X connect 9 0 1 0;
#X connect 9 1 2 0;
#X connect 9 2 3 0;
#X connect 9 3 4 0;
#X connect 9 4 5 0;
#X connect 9 5 6 0;
#X connect 10 0 11 0;
#X connect 10 1 12 0;
#X connect 10 2 13 0;
#X connect 10 3 14 0;
#X connect 10 4 15 0;
#X connect 10 5 16 0;
#X connect 11 0 7 0;
#X connect 12 0 7 0;
#X connect 13 0 7 0;
#X connect 14 0 7 0;
#X connect 15 0 7 0;
#X connect 16 0 7 0;
#X restore 1044 403 pd osc_bank;
#X obj 318 515 s \$0_osc_matrix;
#X obj 1047 795 dac~;
#X obj 350 615 s \$0_osc_matrix2;
#X obj 755 306 s \$0_on_off;
#X obj 1066 680 r \$0_on_off;
#X msg 1066 707 \$1 5;
#X obj 1066 733 line~;
#X obj 1047 756 *~;
#X obj 1046 564 *~;
#X obj 755 280 route 0 1;
#X obj 885 279 route 0 1;
#X obj 885 305 s \$0_noise;
#X obj 785 331 s \$0_vib;
#X obj 1135 380 r \$0_vib;
#X obj 1135 475 line~;
#X obj 1045 502 *~;
#X msg 1135 404 1 \$1;
#X obj 1135 428 -;
#X obj 1178 404 loadbang;
#X msg 1178 430 1;
#X msg 1135 453 \$1 100;
#X obj 1072 600 TAPE_DELAY;
#X obj 915 330 s \$0_tape_delay;
#N canvas 162 51 317 212 delay_settings 0;
#X obj 112 17 r \$0_tape_delay;
#X msg 111 121 time \$1;
#X msg 199 120 feedback \$1;
#X msg 15 122 dry_wet \$1;
#X msg 50 94 0.5;
#X msg 15 94 0;
#X msg 235 92 0.6;
#X msg 199 92 0;
#X msg 149 94 661;
#X msg 111 93 0;
#X obj 112 46 sel 0 1, f 11;
#X obj 111 160 outlet;
#X connect 0 0 10 0;
#X connect 1 0 11 0;
#X connect 2 0 11 0;
#X connect 3 0 11 0;
#X connect 4 0 3 0;
#X connect 5 0 3 0;
#X connect 6 0 2 0;
#X connect 7 0 2 0;
#X connect 8 0 1 0;
#X connect 9 0 1 0;
#X connect 10 0 5 0;
#X connect 10 0 9 0;
#X connect 10 0 7 0;
#X connect 10 1 4 0;
#X connect 10 1 8 0;
#X connect 10 1 6 0;
#X restore 1235 572 pd delay_settings;
#N canvas 145 115 524 326 vibrato 0;
#X obj 20 12 inlet~;
#X obj 64 281 outlet~;
#X obj 64 129 +~ 3;
#X obj 64 77 osc~ 1;
#X obj 64 102 *~ 3;
#X obj 64 156 delread4~ \$0_vib 6;
#X obj 20 42 delwrite~ \$0_vib 6;
#X obj 64 255 *~;
#X obj 82 182 r \$0_vib;
#X obj 82 229 line~;
#X msg 82 207 \$1 100;
#X text 126 77 <<< A modulated delay line creates the vibrato effect
;
#X connect 0 0 6 0;
#X connect 2 0 5 0;
#X connect 3 0 4 0;
#X connect 4 0 2 0;
#X connect 5 0 7 0;
#X connect 7 0 1 0;
#X connect 8 0 10 0;
#X connect 9 0 7 1;
#X connect 10 0 9 0;
#X restore 955 502 pd vibrato;
#X obj 1157 679 r \$0_noise_on_off;
#X msg 1157 705 \$1 100;
#N canvas 64 31 524 311 noise_mod 0;
#X obj 19 257 outlet~;
#X obj 66 169 noise~;
#X obj 19 199 min~;
#X obj 19 13 r \$0_noise;
#X obj 19 41 sel 0 1;
#X msg 19 104 0;
#X msg 94 106 1;
#X msg 51 104 0.5;
#X msg 130 107 3;
#X obj 19 169 line~;
#X msg 19 139 \$1 100;
#X obj 19 226 lop~ 5;
#X obj 94 138 s \$0_noise_on_off;
#X text 75 225 <<< A low-passed \, modulated signal creates the Noise/Amp
Mod effect;
#X connect 1 0 2 1;
#X connect 2 0 11 0;
#X connect 3 0 4 0;
#X connect 4 0 5 0;
#X connect 4 0 6 0;
#X connect 4 1 7 0;
#X connect 4 1 8 0;
#X connect 5 0 10 0;
#X connect 6 0 12 0;
#X connect 7 0 10 0;
#X connect 8 0 12 0;
#X connect 9 0 2 0;
#X connect 10 0 9 0;
#X connect 11 0 0 0;
#X restore 1064 537 pd noise_mod;
#X msg 351 271 print_args;
#X text 321 91 This patch uses four 'GRID' widgets that are used as
a utility/mod matrix and on/off switches for a bank of twelve oscialltors.
, f 135;
#X obj 808 204 cnv 15 120 30 empty empty Mod_matrix 20 12 0 14 -204786
-66577 0;
#X obj 389 204 cnv 15 170 30 empty empty OSC_bank_controls 20 12 0
14 -262130 -66577 0;
#X text 455 318 <<< Additional methods for 'GRID';
#X text 321 40 Guide - The 'GRID' widget creates a number of switches
defined when adding the object to a patch. 'GRID' will output the state
of the current switch being pressed \, a list containing the status
of all switches and grid size., f 135;
#X text 433 453 <<< Current switch status;
#X text 541 482 <<< List output \, triggered a 'dump' message.;
#X text 547 512 <<< Grid length;
#X text 349 244 Lower grid;
#X text 348 559 Upper grid;
#X text 1008 205 Mod_matrix guide -;
#X text 1007 233 Upper-left - On/Off;
#X text 1007 253 Upper-right - Vibrato On/Off;
#X text 1007 273 Lower-left - Noise/Amp Mod On/Off;
#X text 1007 293 Lower-right - Tape Delay On/Off;
#X text 317 124 'GRID' can also be used in conjunction with 'PATTERN'
for sequencer applications. See 'T_GRID+PATTERN.pd' for more information
on this., f 136;
#X msg 170 168 device LPM_MK3;
#X obj 352 389 GRID 32 6 24 1;
#X obj 755 253 GRID 74 2 24 1;
#X obj 885 253 GRID 64 2 24 1;
#X obj 350 588 GRID 42 6 24 1;
#X obj 7 7 declare -path r_cycle;
#X msg 142 104 device LP_Pro_MK3;
#N canvas 1 78 486 150 MISC 0;
#X text 32 25 This is needed to make the r_cycle objects accessible
even before placing the r_cycle folder in a place part of the path
search in Pd \;;
#X obj 34 87 declare -path ../;
#X restore 15 616 pd MISC;
#X text 31 685 Copyright 2019-2020 Focusrite Audio Engineering Limited.
;
#X text 62 807 http://www.apache.org/licenses/LICENSE-2.0;
#X text 32 715 Licensed under the Apache License \, Version 2 (the
"License") \; you may not use this file except in compliance with the
License.;
#X text 32 772 You may obtain a copy of the License at;
#X text 32 837 Unless required by applicable law or agreed to in writing
\, software distributed under the License is distributed on an "AS
IS" BASIS \, WITHOUT WARRANTIES OR CONDITIONS OF ANY KIND \, either
express or implied.;
#X text 32 893 See the License for the specific language governing
permissions and limitations under the License.;
#X connect 3 0 4 0;
#X connect 4 0 2 0;
#X connect 5 0 2 0;
#X connect 6 0 2 0;
#X connect 8 0 9 0;
#X connect 8 1 10 0;
#X connect 12 0 63 0;
#X connect 13 0 63 0;
#X connect 14 0 63 0;
#X connect 16 0 32 0;
#X connect 16 0 41 0;
#X connect 21 0 22 0;
#X connect 22 0 23 0;
#X connect 23 0 24 1;
#X connect 24 0 18 0;
#X connect 24 0 18 1;
#X connect 25 0 24 0;
#X connect 25 0 38 0;
#X connect 26 0 20 0;
#X connect 26 1 29 0;
#X connect 27 0 28 0;
#X connect 27 1 39 0;
#X connect 30 0 33 0;
#X connect 31 0 32 1;
#X connect 32 0 25 0;
#X connect 33 0 34 0;
#X connect 34 0 37 0;
#X connect 35 0 36 0;
#X connect 36 0 37 0;
#X connect 37 0 31 0;
#X connect 38 0 24 0;
#X connect 40 0 38 1;
#X connect 41 0 25 0;
#X connect 42 0 43 0;
#X connect 43 0 23 0;
#X connect 44 0 25 1;
#X connect 45 0 63 0;
#X connect 62 0 2 0;
#X connect 63 0 8 0;
#X connect 63 0 17 0;
#X connect 63 1 15 0;
#X connect 63 2 11 0;
#X connect 64 0 26 0;
#X connect 65 0 27 0;
#X connect 66 0 19 0;
#X connect 68 0 2 0;
